<svg version="1.1" xmlns="http://www.w3.org/2000/svg" xmlns:xlink="http://www.w3.org/1999/xlink" width="99.57007" height="99.61141" viewBox="0,0,99.57007,99.61141"><g transform="translate(-190.21496,-130.19428)"><g data-paper-data="{&quot;isPaintingLayer&quot;:true}" fill-rule="nonzero" stroke-miterlimit="10" stroke-dasharray="" stroke-dashoffset="0" style="mix-blend-mode: normal"><g data-paper-data="{&quot;origPos&quot;:null,&quot;index&quot;:null}" stroke-linejoin="round"><path d="M247.01801,147.9581c-0.31011,-5.52589 -2.32882,-4.43264 -2.40969,-8.66525c-0.07496,-3.92339 2.10178,-8.47542 5.714,-8.76212c3.02702,-0.24027 8.42918,2.29627 9.17304,10.76926c0.25237,2.87457 -1.19268,4.18929 -1.41653,6.81125c0.10977,5.7459 1.86509,13.46947 -6.20405,13.75922c-8.61415,0.30931 -4.85677,-13.91235 -4.85677,-13.91235z" data-paper-data="{&quot;origPos&quot;:null,&quot;index&quot;:null,&quot;origRot&quot;:0}" fill="#1e1c1d" stroke="none" stroke-width="0" stroke-linecap="butt"/><path d="M247.01801,147.95813c0.15841,-5.71577 -1.82465,-4.2046 -2.40969,-8.66525c-0.20112,-1.53355 0.70206,-4.88192 3.11216,-7.07002c1.00177,-0.2405 1.44211,-0.17091 2.64272,-0.26621c1.62089,-0.12866 2.40773,-0.41494 3.76208,0.10082c3.40501,2.39848 4.98908,4.90263 5.37008,9.24253c0.07216,1.51181 -1.36895,4.25392 -1.5928,6.87589c-0.42331,5.19982 1.06349,13.21593 -5.75333,13.26353c-7.84642,0.0634 -5.1312,-13.48128 -5.1312,-13.48128z" data-paper-data="{&quot;origPos&quot;:null,&quot;index&quot;:null,&quot;origRot&quot;:0}" fill="#bfbfbf" stroke="none" stroke-width="0" stroke-linecap="butt"/><path d="M257.60993,153.17595c0.13104,4.33279 -2.39969,8.33478 -5.07391,8.31916c-4.14302,-0.02422 -5.8022,-4.57819 -5.95639,-8.18804c-0.13826,-3.23704 1.72947,-5.2725 1.44626,-7.49721c-0.39854,-3.13054 -2.08927,-4.94056 -1.77321,-8.86527c0.20963,-2.60303 1.52127,-4.07113 4.5054,-4.27016c4.01067,-0.26749 6.05224,2.35896 6.64564,5.90713c0.40688,2.43293 -1.75055,4.99459 -1.51246,7.70837c0,0 1.62495,3.78694 1.71869,6.88602z" data-paper-data="{&quot;origPos&quot;:null}" fill="#503929" stroke="none" stroke-width="0" stroke-linecap="butt"/><path d="M254.39027,146.50997c0.44763,-0.01544 2.12254,4.1598 2.36236,4.89651c0.42364,1.30134 -0.36805,9.39523 -4.36676,9.40602c-4.4041,-0.10075 -5.11168,-9.08174 -4.90096,-9.43221c1.06891,-1.77779 1.2945,-4.59797 2.10179,-4.55003c1.87759,0.1115 2.92309,-0.2554 4.80356,-0.32029z" data-paper-data="{&quot;origPos&quot;:null,&quot;index&quot;:null}" fill="#1e1c1d" stroke="none" stroke-width="0" stroke-linecap="round"/><path d="M255.6798,136.66238c0.27693,2.71914 -1.80556,6.28358 -1.80556,6.28358c0.00792,4.24655 1.3754,3.91659 2.06271,6.71915c0.22694,0.92545 -0.06603,2.10912 -1.15061,2.07264c-1.53765,-0.05166 0.48529,-2.33035 -2.43331,-2.31532c-2.96171,0.01521 -1.57287,1.56999 -3.5009,1.66777c-0.78497,0.03984 -0.63319,-0.99578 -0.44616,-1.66167c0.79071,-2.8163 1.55871,-2.46642 1.07817,-7.19129c-0.21758,-2.1395 -1.3744,-1.96131 -1.72594,-4.71779c-0.24455,-1.91799 0.17914,-3.95012 3.27376,-3.9737c3.09473,-0.02358 4.45775,1.25086 4.64777,3.11662z" data-paper-data="{&quot;origPos&quot;:null}" fill="#ebe2d0" stroke="none" stroke-width="1" stroke-linecap="round"/><path d="M248.11243,139.84329c0,0 2.29562,-0.64912 3.75596,-0.72553c1.41395,-0.07397 3.43731,0.45727 3.43731,0.45727l-6.92975,1.88985l7.11354,1.58778l-7.11981,1.79673l7.30823,1.73342c0,0 -2.22168,-0.58914 -3.64843,-0.56426c-1.5036,0.02615 -3.86011,0.69494 -3.86011,0.69494l7.28214,-2.01917l-7.14153,-1.21575l7.1294,-2.37902z" data-paper-data="{&quot;origPos&quot;:null}" fill="none" stroke="#503929" stroke-width="1" stroke-linecap="round"/></g><g data-paper-data="{&quot;origPos&quot;:null}" stroke-linejoin="round"><path d="M233.77833,147.69968c0,0 3.42586,14.28517 -5.17933,13.82362c-8.06075,-0.43235 -6.12615,-8.12331 -5.88277,-13.86608c-0.16284,-2.62538 -1.577,-3.96538 -1.25783,-6.8349c0.94076,-8.4581 6.40082,-10.89859 9.42161,-10.60485c3.60481,0.35052 5.67523,4.94009 5.50904,8.86135c-0.17928,4.23032 -2.17215,3.1016 -2.61072,8.62087z" data-paper-data="{&quot;origPos&quot;:null,&quot;index&quot;:null,&quot;origRot&quot;:0}" fill="#1e1c1d" stroke="none" stroke-width="0" stroke-linecap="butt"/><path d="M233.77831,147.69972c0,0 2.39964,13.5899 -5.44369,13.38779c-6.81432,-0.16811 -5.14139,-8.15629 -5.44368,-13.36252c-0.16284,-2.62538 -1.53986,-5.39241 -1.43255,-6.90263c0.48185,-4.33227 2.12384,-6.8079 5.58393,-9.14568c1.36607,-0.49172 2.1461,-0.19157 3.76366,-0.03428c1.19815,0.11651 1.64001,0.05471 2.63599,0.31287c2.35871,2.23026 3.18384,5.5939 2.94709,7.12358c-0.68865,4.44939 -2.63616,2.90347 -2.61072,8.62086z" data-paper-data="{&quot;origPos&quot;:null,&quot;index&quot;:null,&quot;origRot&quot;:0}" fill="#bfbfbf" stroke="none" stroke-width="0" stroke-linecap="butt"/><path d="M223.06723,152.72921c0.16579,-3.09679 1.87849,-6.85422 1.87849,-6.85422c0.30116,-2.70901 -1.79625,-5.3083 -1.33287,-7.73353c0.6758,-3.53694 2.77803,-6.12676 6.78165,-5.78842c2.97888,0.25175 4.25612,1.74274 4.40516,4.34894c0.22471,3.92949 -1.50776,5.70925 -1.97902,8.8321c-0.3349,2.21923 1.48511,4.2873 1.27159,7.52123c-0.23811,3.60638 -2.00287,8.13008 -6.1456,8.08105c-2.67403,-0.03166 -5.11117,-4.07759 -4.87939,-8.40717z" data-paper-data="{&quot;origPos&quot;:null}" fill="#503929" stroke="none" stroke-width="0" stroke-linecap="butt"/><path d="M226.44128,146.12152c1.87857,0.09813 2.91532,0.48343 4.79511,0.40515c0.80824,-0.03366 0.9682,2.78992 1.99553,4.58624c0.20253,0.35412 -0.71378,9.32076 -5.11931,9.34362c-3.99765,-0.08149 -4.60093,-8.18771 -4.14711,-9.48129c0.25692,-0.73232 2.0286,-4.87709 2.47577,-4.85373z" data-paper-data="{&quot;origPos&quot;:null,&quot;index&quot;:null}" fill="#1e1c1d" stroke="none" stroke-width="0" stroke-linecap="round"/><path d="M225.38113,136.25318c0.23337,-1.8621 1.62576,-3.11209 4.7193,-3.0338c3.09345,0.07828 3.46978,2.11748 3.18058,4.03068c-0.41549,2.74978 -1.56792,2.55109 -1.83522,4.68639c-0.59033,4.71532 0.18564,4.37916 0.9107,7.20887c0.17149,0.66906 0.29917,1.70715 -0.48471,1.65344c-1.92547,-0.13186 -0.50065,-1.66174 -3.46139,-1.7294c-2.91766,-0.06655 -0.94814,2.24736 -2.48667,2.2719c-1.08522,0.01722 -1.35058,-1.17139 -1.10218,-2.09255c0.75236,-2.78984 2.11188,-2.43586 2.21856,-6.68139c0,0 -1.99915,-3.60044 -1.65905,-6.31413z" data-paper-data="{&quot;origPos&quot;:null}" fill="#ebe2d0" stroke="none" stroke-width="1" stroke-linecap="round"/><path d="M225.5182,140.6937l7.0726,2.50458l-7.16842,1.08924l7.23378,2.14742c0,0 -2.34047,-0.71031 -3.84316,-0.76305c-1.42587,-0.05001 -3.6608,0.49964 -3.6608,0.49964l7.34705,-1.60378l-7.07657,-1.92232l7.14901,-1.4616l-6.88438,-2.01198c0,0 2.03529,-0.49543 3.44723,-0.3964c1.45817,0.10222 3.73831,0.79178 3.73831,0.79178z" data-paper-data="{&quot;origPos&quot;:null}" fill="none" stroke="#503929" stroke-width="1" stroke-linecap="round"/></g><path d="M255.13389,144.91342c0.53126,-0.01834 2.51909,4.93817 2.80372,5.81272c0.50279,1.54484 -0.43685,11.15323 -5.18265,11.16605c-5.22692,-0.11958 -6.06668,-10.78107 -5.81658,-11.19712c1.26861,-2.11046 1.53637,-5.45834 2.49449,-5.40142c2.22838,0.13237 3.46921,-0.30319 5.70101,-0.38024z" data-paper-data="{&quot;origPos&quot;:null,&quot;index&quot;:null}" fill="#1e1c1d" stroke="none" stroke-width="0" stroke-linecap="round" stroke-linejoin="round"/><path d="M275.48954,143.15709c7.18952,-2.71659 9.47147,9.82031 9.96106,15.08058c0.48526,5.21377 2.38781,13.61613 -8.0788,21.00813c-8.36422,6.67586 -7.5842,-18.1018 -8.07905,-22.92765c-0.49484,-4.82586 4.37748,-12.47364 6.19678,-13.16106z" data-paper-data="{&quot;origPos&quot;:null,&quot;origRot&quot;:0,&quot;index&quot;:null}" fill="#503929" stroke="none" stroke-width="0" stroke-linecap="butt" stroke-linejoin="miter"/><path d="M204.94418,142.53339c1.80293,0.71945 6.49638,8.4518 5.88941,13.26792c-0.60699,4.81611 -0.40338,29.60247 -8.61062,22.78009c-10.29254,-7.57553 -8.19497,-15.94252 -7.58855,-21.14664c0.61183,-5.25054 3.18488,-17.74451 10.30974,-14.90137z" data-paper-data="{&quot;origPos&quot;:null,&quot;origRot&quot;:0,&quot;index&quot;:null}" fill="#503929" stroke="none" stroke-width="0" stroke-linecap="butt" stroke-linejoin="miter"/><path d="M214.85196,148.55981c0,0 12.55829,-8.19602 27.46892,-7.70073c14.91064,0.49529 23.14857,9.10038 23.14857,9.10038l5.08684,5.69454c0,0 15.43524,-3.39365 19.22874,6.33971c-5.53803,8.74129 -0.79562,26.67993 -53.86734,25.60151c-48.09152,-0.97723 -42.13199,-20.35688 -45.70273,-27.52783c4.72946,-8.24375 20.80913,-5.4628 20.80913,-5.4628z" data-paper-data="{&quot;origPos&quot;:null,&quot;index&quot;:null}" fill="#e6e6e6" stroke="none" stroke-width="0" stroke-linecap="butt" stroke-linejoin="miter"/><path d="M209.60552,160.28954l5.31702,-9.05198c0,0 10.85126,-7.84541 28.97973,-7.42116c16.19855,0.37908 22.63392,10.81404 22.63392,10.81404l1.73208,8.86969c0,0 -7.26135,-12.83568 -27.35806,-12.76969c-20.09671,0.06599 -31.30469,9.55911 -31.30469,9.55911z" data-paper-data="{&quot;origPos&quot;:null,&quot;index&quot;:null}" fill="#c99638" stroke="none" stroke-width="0" stroke-linecap="butt" stroke-linejoin="miter"/><path d="M208.63294,150.8638c-7.81814,-8.24801 0.8064,-14.53889 5.82665,-6.4198c3.7619,1.29642 2.78519,-0.97481 4.98563,4.18984c3.60273,1.18483 3.85998,2.97723 3.90166,3.48422c0.18637,2.2672 -2.19913,0.27503 -5.16115,0.05765c-2.96201,-0.21738 -6.2211,1.68991 -9.55279,-1.31191z" data-paper-data="{&quot;origPos&quot;:null,&quot;origRot&quot;:0,&quot;index&quot;:null}" fill="#7b5030" stroke="none" stroke-width="0" stroke-linecap="butt" stroke-linejoin="miter"/><path d="M217.60629,186.1718c-0.98164,0.55571 -9.03813,-0.66749 -9.24303,-3.20577c-0.0586,-1.72201 6.1519,-22.47228 3.35378,-29.42068c-0.25151,-3.77489 7.96598,-8.07948 7.96598,-8.07948c0,0 2.40376,2.44623 2.7364,15.30981c0.25908,10.01933 -3.98249,24.43157 -4.81311,25.3961z" data-paper-data="{&quot;origPos&quot;:null,&quot;origRot&quot;:0,&quot;index&quot;:null}" fill="#b3b3b3" stroke="none" stroke-width="0" stroke-linecap="round" stroke-linejoin="miter"/><path d="M260.4046,154.17891c-2.96645,0.16497 -5.39781,2.11455 -5.15875,-0.14889c0.05345,-0.50614 0.35234,-2.29363 3.98189,-3.41452c2.32011,-5.12467 1.29078,-2.87119 5.08205,-4.10083c5.20804,-8.02867 13.68449,-1.58661 5.67614,6.52149c-3.40081,2.94228 -6.61487,0.97777 -9.58133,1.14274z" data-paper-data="{&quot;origPos&quot;:null,&quot;origRot&quot;:0,&quot;index&quot;:null}" fill="#7b5030" stroke="none" stroke-width="0" stroke-linecap="butt" stroke-linejoin="miter"/><path d="M261.46768,186.55957c-0.808,-0.97902 -4.71352,-15.4633 -4.22147,-25.47597c0.63174,-12.85506 3.0919,-15.25829 3.0919,-15.25829c0,0 8.11569,4.44898 7.77644,8.21866c-2.95915,6.89751 2.76749,27.75332 2.66884,29.47394c-0.2639,2.53412 -8.34718,3.61464 -9.3157,3.04168z" data-paper-data="{&quot;origPos&quot;:null,&quot;origRot&quot;:0,&quot;index&quot;:null}" fill="#b3b3b3" stroke="none" stroke-width="0" stroke-linecap="round" stroke-linejoin="miter"/><path d="M213.8463,142.44373c0,0 4.20774,2.01672 3.81461,4.83273c-0.39313,2.81604 -3.22119,6.02432 -12.42827,5.55738c-6.63922,-0.33671 -6.03727,-5.23964 -7.32688,-7.57363c-0.49647,-0.89849 1.88124,-3.49163 3.19341,-3.34038c2.53792,0.34845 5.38046,-4.63343 12.74716,0.52389z" data-paper-data="{&quot;origPos&quot;:null,&quot;origRot&quot;:0,&quot;index&quot;:null}" fill="#7b5030" stroke="none" stroke-width="0" stroke-linecap="butt" stroke-linejoin="miter"/><path d="M220.66389,149.34523c1.52035,5.41264 -6.7773,12.42555 -10.70922,2.41314c-5.96934,-15.20064 2.44527,-7.62904 5.00192,-7.10623c4.82584,1.59761 4.16589,-0.79452 5.7073,4.69308z" data-paper-data="{&quot;origPos&quot;:null,&quot;origRot&quot;:0,&quot;index&quot;:null}" fill="#7b5030" stroke="none" stroke-width="0" stroke-linecap="butt" stroke-linejoin="miter"/><path d="M265.44855,143.15661c7.9176,-5.27193 10.72669,-0.30071 13.40398,-0.68177c1.3832,-0.16797 3.78847,2.40868 3.23543,3.31755c-1.43655,2.36094 -0.9775,7.28012 -7.96106,7.69938c-9.68462,0.58139 -12.5411,-2.60788 -12.85452,-5.43268c-0.31343,-2.82479 4.17617,-4.90248 4.17617,-4.90248z" data-paper-data="{&quot;origPos&quot;:null,&quot;origRot&quot;:0,&quot;index&quot;:null}" fill="#7b5030" stroke="none" stroke-width="0" stroke-linecap="butt" stroke-linejoin="miter"/><path d="M265.06679,145.63851c2.56828,-0.47751 11.15727,-7.89878 4.83562,7.19319c-4.16397,9.94084 -12.29681,2.78267 -10.65089,-2.60199c1.66871,-5.45922 0.95327,-3.07924 5.81527,-4.59121z" data-paper-data="{&quot;origPos&quot;:null,&quot;origRot&quot;:0,&quot;index&quot;:null}" fill="#7b5030" stroke="none" stroke-width="0" stroke-linecap="butt" stroke-linejoin="miter"/><path d="M257.08316,164.2874c2.58528,-9.69676 16.12529,-1.61625 7.47261,3.42834c1.7839,-4.67271 8.13372,1.49686 2.2256,3.30466c7.20776,-9.97237 17.48599,4.80343 6.90203,8.12554c6.53198,-3.94839 6.93691,6.25153 0.41276,4.3714c12.20175,-5.55441 12.73982,15.51456 0.00215,11.10308c19.30982,-1.18305 7.24759,27.15591 -6.66456,13.93436c16.48909,1.03238 -2.71546,19.8353 -5.75208,3.13928c17.58362,9.18354 -9.35461,20.42143 -8.65001,6.6744c5.74346,5.4203 -6.65493,8.14382 -4.7209,1.08456c5.97427,11.20307 -18.77145,15.58061 -16.89231,1.47332c-0.08895,7.26344 -12.70724,5.17546 -10.49694,-2.50693c-4.56946,9.12044 -21.48154,-1.10401 -7.64703,-6.7441c-7.38757,11.23656 -21.47821,-7.73868 -6.8643,-9.50398c-6.7307,6.9355 -12.64171,-6.6968 -3.15771,-5.61379c-7.66913,4.72747 -13.04851,-10.68581 -1.94662,-10.50338c-7.19237,0.85724 -6.13911,-11.33777 1.1007,-9.85113c-1.85664,-4.11291 3.64011,-7.07655 4.91091,-3.28512c-4.9133,-0.65752 0.11513,-6.91028 1.86738,-2.73123c-7.54062,-7.72832 11.41236,-16.36398 13.08023,-4.49587c7.22069,-2.83115 14.87893,-3.10435 34.81807,-1.40341z" data-paper-data="{&quot;origPos&quot;:null}" fill="#000000" stroke="none" stroke-width="0" stroke-linecap="butt" stroke-linejoin="miter"/><path d="M247.68497,154.28842c3.70214,1.2704 4.6506,-0.11926 9.80964,3.28194c4.73496,3.99702 6.38499,6.11375 6.67823,12.55663c0.2936,6.45067 7.34553,8.4416 5.66095,10.24192c-1.82791,1.95349 -5.60433,-5.5001 -3.75031,1.72482c1.85402,7.22493 6.8047,33.77454 -26.24172,33.31461c-33.25783,-0.46287 -28.24966,-26.34417 -26.39145,-31.84466c2.94202,-8.70866 0.9838,-2.06167 -2.66371,-4.45243c-0.81063,-2.01636 5.15571,-4.66633 6.25187,-10.29522c1.09616,-5.62889 1.89259,-9.41516 6.6865,-11.97722c4.03611,-2.46268 4.55282,-1.6857 8.9176,-2.61798c2.70018,-0.57675 3.58859,-1.80845 7.24443,-1.79138c3.83639,0.01791 5.6356,1.11697 7.79797,1.85899z" data-paper-data="{&quot;origPos&quot;:null}" fill="#7b5030" stroke="none" stroke-width="0" stroke-linecap="butt" stroke-linejoin="miter"/><path d="M233.94196,156.58533c0.5332,-1.90028 3.97035,-0.98817 3.97035,-0.98817c0,0 0.68835,-0.95892 2.5015,-0.94289c2.07698,0.01837 2.55116,1.08715 2.55116,1.08715c0,0 3.37286,-0.54351 3.39266,1.18644" data-paper-data="{&quot;origPos&quot;:null,&quot;index&quot;:null}" fill="none" stroke="#503929" stroke-width="1.5" stroke-linecap="round" stroke-linejoin="round"/><g data-paper-data="{&quot;origPos&quot;:null}" fill="#000000" stroke="none" stroke-linejoin="miter"><path d="M231.83672,165.18402c2.18065,-0.72079 2.51596,-0.94847 2.51596,-0.94847c0,0 0.52199,1.45062 -1.29778,2.05211c-2.81043,-0.06013 -11.69973,1.75852 -11.69973,1.75852c0,0 1.4703,-1.02047 3.33807,-1.5305c2.22278,-0.60697 7.14348,-1.33166 7.14348,-1.33166z" data-paper-data="{&quot;origPos&quot;:null,&quot;index&quot;:null}" stroke-width="0.5" stroke-linecap="butt"/><path d="M257.12718,166.23301c0,0 -4.18519,-2.33206 -6.25282,-2.40221c-2.66747,-0.09048 -4.04026,0.22505 -4.04026,0.22505c0,0 0.27498,-2.14364 3.91182,-2.03904c3.63682,0.10461 6.38127,4.21618 6.38127,4.21618z" data-paper-data="{&quot;origPos&quot;:null}" stroke-width="0" stroke-linecap="round"/><path d="M233.3774,163.87796c0,0 -1.36517,-0.33976 -4.03417,-0.29643c-2.06884,0.03357 -6.30741,2.29116 -6.30741,2.29116c0,0 3.33835,-4.04135 6.47771,-4.07615c3.13936,-0.0348 3.86388,2.08142 3.86388,2.08142z" data-paper-data="{&quot;origPos&quot;:null,&quot;index&quot;:null}" stroke-width="0" stroke-linecap="round"/><path d="M255.61252,167.03313c1.85553,0.54296 3.30179,1.5892 3.30179,1.5892c0,0 -8.84517,-1.97553 -11.65634,-1.96502c-1.80549,-0.63362 -1.24987,-2.07471 -1.24987,-2.07471c0,0 0.32994,0.23363 2.49338,0.99275c0,0 4.90283,0.81162 7.11104,1.45777z" data-paper-data="{&quot;origPos&quot;:null,&quot;index&quot;:null}" stroke-width="0.5" stroke-linecap="butt"/></g></g></g></svg>