<?xml version="1.0" encoding="utf-8" standalone="no"?>
<!DOCTYPE svg PUBLIC "-//W3C//DTD SVG 1.1//EN"
  "http://www.w3.org/Graphics/SVG/1.1/DTD/svg11.dtd">
<svg xmlns:xlink="http://www.w3.org/1999/xlink" width="3600pt" height="720pt" viewBox="0 0 3600 720" xmlns="http://www.w3.org/2000/svg" version="1.1">
 <metadata>
  <rdf:RDF xmlns:dc="http://purl.org/dc/elements/1.1/" xmlns:cc="http://creativecommons.org/ns#" xmlns:rdf="http://www.w3.org/1999/02/22-rdf-syntax-ns#">
   <cc:Work>
    <dc:type rdf:resource="http://purl.org/dc/dcmitype/StillImage"/>
    <dc:date>2025-07-29T13:33:22.172660</dc:date>
    <dc:format>image/svg+xml</dc:format>
    <dc:creator>
     <cc:Agent>
      <dc:title>Matplotlib v3.10.3, https://matplotlib.org/</dc:title>
     </cc:Agent>
    </dc:creator>
   </cc:Work>
  </rdf:RDF>
 </metadata>
 <defs>
  <style type="text/css">*{stroke-linejoin: round; stroke-linecap: butt}</style>
 </defs>
 <g id="figure_1">
  <g id="patch_1">
   <path d="M 0 720 
L 3600 720 
L 3600 0 
L 0 0 
z
" style="fill: #ffffff"/>
  </g>
  <g id="axes_1">
   <g id="patch_2">
    <path d="M 44.57 678.04 
L 3589.2 678.04 
L 3589.2 26.88 
L 44.57 26.88 
z
" style="fill: #ffffff"/>
   </g>
   <g id="matplotlib.axis_1">
    <g id="xtick_1">
     <g id="line2d_1">
      <path d="M 205.689545 678.04 
L 205.689545 26.88 
" clip-path="url(#p9911cf58a6)" style="fill: none; stroke: #b0b0b0; stroke-width: 0.8; stroke-linecap: square"/>
     </g>
     <g id="line2d_2">
      <defs>
       <path id="mbed02d120b" d="M 0 0 
L 0 3.5 
" style="stroke: #000000; stroke-width: 0.8"/>
      </defs>
      <g>
       <use xlink:href="#mbed02d120b" x="205.689545" y="678.04" style="stroke: #000000; stroke-width: 0.8"/>
      </g>
     </g>
     <g id="text_1">
      <!-- 0 -->
      <g transform="translate(202.508295 692.638438) scale(0.1 -0.1)">
       <defs>
        <path id="DejaVuSans-30" d="M 2034 4250 
Q 1547 4250 1301 3770 
Q 1056 3291 1056 2328 
Q 1056 1369 1301 889 
Q 1547 409 2034 409 
Q 2525 409 2770 889 
Q 3016 1369 3016 2328 
Q 3016 3291 2770 3770 
Q 2525 4250 2034 4250 
z
M 2034 4750 
Q 2819 4750 3233 4129 
Q 3647 3509 3647 2328 
Q 3647 1150 3233 529 
Q 2819 -91 2034 -91 
Q 1250 -91 836 529 
Q 422 1150 422 2328 
Q 422 3509 836 4129 
Q 1250 4750 2034 4750 
z
" transform="scale(0.015625)"/>
       </defs>
       <use xlink:href="#DejaVuSans-30"/>
      </g>
     </g>
    </g>
    <g id="xtick_2">
     <g id="line2d_3">
      <path d="M 850.812851 678.04 
L 850.812851 26.88 
" clip-path="url(#p9911cf58a6)" style="fill: none; stroke: #b0b0b0; stroke-width: 0.8; stroke-linecap: square"/>
     </g>
     <g id="line2d_4">
      <g>
       <use xlink:href="#mbed02d120b" x="850.812851" y="678.04" style="stroke: #000000; stroke-width: 0.8"/>
      </g>
     </g>
     <g id="text_2">
      <!-- 200 -->
      <g transform="translate(841.269101 692.638438) scale(0.1 -0.1)">
       <defs>
        <path id="DejaVuSans-32" d="M 1228 531 
L 3431 531 
L 3431 0 
L 469 0 
L 469 531 
Q 828 903 1448 1529 
Q 2069 2156 2228 2338 
Q 2531 2678 2651 2914 
Q 2772 3150 2772 3378 
Q 2772 3750 2511 3984 
Q 2250 4219 1831 4219 
Q 1534 4219 1204 4116 
Q 875 4013 500 3803 
L 500 4441 
Q 881 4594 1212 4672 
Q 1544 4750 1819 4750 
Q 2544 4750 2975 4387 
Q 3406 4025 3406 3419 
Q 3406 3131 3298 2873 
Q 3191 2616 2906 2266 
Q 2828 2175 2409 1742 
Q 1991 1309 1228 531 
z
" transform="scale(0.015625)"/>
       </defs>
       <use xlink:href="#DejaVuSans-32"/>
       <use xlink:href="#DejaVuSans-30" transform="translate(63.623047 0)"/>
       <use xlink:href="#DejaVuSans-30" transform="translate(127.246094 0)"/>
      </g>
     </g>
    </g>
    <g id="xtick_3">
     <g id="line2d_5">
      <path d="M 1495.936156 678.04 
L 1495.936156 26.88 
" clip-path="url(#p9911cf58a6)" style="fill: none; stroke: #b0b0b0; stroke-width: 0.8; stroke-linecap: square"/>
     </g>
     <g id="line2d_6">
      <g>
       <use xlink:href="#mbed02d120b" x="1495.936156" y="678.04" style="stroke: #000000; stroke-width: 0.8"/>
      </g>
     </g>
     <g id="text_3">
      <!-- 400 -->
      <g transform="translate(1486.392406 692.638438) scale(0.1 -0.1)">
       <defs>
        <path id="DejaVuSans-34" d="M 2419 4116 
L 825 1625 
L 2419 1625 
L 2419 4116 
z
M 2253 4666 
L 3047 4666 
L 3047 1625 
L 3713 1625 
L 3713 1100 
L 3047 1100 
L 3047 0 
L 2419 0 
L 2419 1100 
L 313 1100 
L 313 1709 
L 2253 4666 
z
" transform="scale(0.015625)"/>
       </defs>
       <use xlink:href="#DejaVuSans-34"/>
       <use xlink:href="#DejaVuSans-30" transform="translate(63.623047 0)"/>
       <use xlink:href="#DejaVuSans-30" transform="translate(127.246094 0)"/>
      </g>
     </g>
    </g>
    <g id="xtick_4">
     <g id="line2d_7">
      <path d="M 2141.059461 678.04 
L 2141.059461 26.88 
" clip-path="url(#p9911cf58a6)" style="fill: none; stroke: #b0b0b0; stroke-width: 0.8; stroke-linecap: square"/>
     </g>
     <g id="line2d_8">
      <g>
       <use xlink:href="#mbed02d120b" x="2141.059461" y="678.04" style="stroke: #000000; stroke-width: 0.8"/>
      </g>
     </g>
     <g id="text_4">
      <!-- 600 -->
      <g transform="translate(2131.515711 692.638438) scale(0.1 -0.1)">
       <defs>
        <path id="DejaVuSans-36" d="M 2113 2584 
Q 1688 2584 1439 2293 
Q 1191 2003 1191 1497 
Q 1191 994 1439 701 
Q 1688 409 2113 409 
Q 2538 409 2786 701 
Q 3034 994 3034 1497 
Q 3034 2003 2786 2293 
Q 2538 2584 2113 2584 
z
M 3366 4563 
L 3366 3988 
Q 3128 4100 2886 4159 
Q 2644 4219 2406 4219 
Q 1781 4219 1451 3797 
Q 1122 3375 1075 2522 
Q 1259 2794 1537 2939 
Q 1816 3084 2150 3084 
Q 2853 3084 3261 2657 
Q 3669 2231 3669 1497 
Q 3669 778 3244 343 
Q 2819 -91 2113 -91 
Q 1303 -91 875 529 
Q 447 1150 447 2328 
Q 447 3434 972 4092 
Q 1497 4750 2381 4750 
Q 2619 4750 2861 4703 
Q 3103 4656 3366 4563 
z
" transform="scale(0.015625)"/>
       </defs>
       <use xlink:href="#DejaVuSans-36"/>
       <use xlink:href="#DejaVuSans-30" transform="translate(63.623047 0)"/>
       <use xlink:href="#DejaVuSans-30" transform="translate(127.246094 0)"/>
      </g>
     </g>
    </g>
    <g id="xtick_5">
     <g id="line2d_9">
      <path d="M 2786.182766 678.04 
L 2786.182766 26.88 
" clip-path="url(#p9911cf58a6)" style="fill: none; stroke: #b0b0b0; stroke-width: 0.8; stroke-linecap: square"/>
     </g>
     <g id="line2d_10">
      <g>
       <use xlink:href="#mbed02d120b" x="2786.182766" y="678.04" style="stroke: #000000; stroke-width: 0.8"/>
      </g>
     </g>
     <g id="text_5">
      <!-- 800 -->
      <g transform="translate(2776.639016 692.638438) scale(0.1 -0.1)">
       <defs>
        <path id="DejaVuSans-38" d="M 2034 2216 
Q 1584 2216 1326 1975 
Q 1069 1734 1069 1313 
Q 1069 891 1326 650 
Q 1584 409 2034 409 
Q 2484 409 2743 651 
Q 3003 894 3003 1313 
Q 3003 1734 2745 1975 
Q 2488 2216 2034 2216 
z
M 1403 2484 
Q 997 2584 770 2862 
Q 544 3141 544 3541 
Q 544 4100 942 4425 
Q 1341 4750 2034 4750 
Q 2731 4750 3128 4425 
Q 3525 4100 3525 3541 
Q 3525 3141 3298 2862 
Q 3072 2584 2669 2484 
Q 3125 2378 3379 2068 
Q 3634 1759 3634 1313 
Q 3634 634 3220 271 
Q 2806 -91 2034 -91 
Q 1263 -91 848 271 
Q 434 634 434 1313 
Q 434 1759 690 2068 
Q 947 2378 1403 2484 
z
M 1172 3481 
Q 1172 3119 1398 2916 
Q 1625 2713 2034 2713 
Q 2441 2713 2670 2916 
Q 2900 3119 2900 3481 
Q 2900 3844 2670 4047 
Q 2441 4250 2034 4250 
Q 1625 4250 1398 4047 
Q 1172 3844 1172 3481 
z
" transform="scale(0.015625)"/>
       </defs>
       <use xlink:href="#DejaVuSans-38"/>
       <use xlink:href="#DejaVuSans-30" transform="translate(63.623047 0)"/>
       <use xlink:href="#DejaVuSans-30" transform="translate(127.246094 0)"/>
      </g>
     </g>
    </g>
    <g id="xtick_6">
     <g id="line2d_11">
      <path d="M 3431.306071 678.04 
L 3431.306071 26.88 
" clip-path="url(#p9911cf58a6)" style="fill: none; stroke: #b0b0b0; stroke-width: 0.8; stroke-linecap: square"/>
     </g>
     <g id="line2d_12">
      <g>
       <use xlink:href="#mbed02d120b" x="3431.306071" y="678.04" style="stroke: #000000; stroke-width: 0.8"/>
      </g>
     </g>
     <g id="text_6">
      <!-- 1000 -->
      <g transform="translate(3418.581071 692.638438) scale(0.1 -0.1)">
       <defs>
        <path id="DejaVuSans-31" d="M 794 531 
L 1825 531 
L 1825 4091 
L 703 3866 
L 703 4441 
L 1819 4666 
L 2450 4666 
L 2450 531 
L 3481 531 
L 3481 0 
L 794 0 
L 794 531 
z
" transform="scale(0.015625)"/>
       </defs>
       <use xlink:href="#DejaVuSans-31"/>
       <use xlink:href="#DejaVuSans-30" transform="translate(63.623047 0)"/>
       <use xlink:href="#DejaVuSans-30" transform="translate(127.246094 0)"/>
       <use xlink:href="#DejaVuSans-30" transform="translate(190.869141 0)"/>
      </g>
     </g>
    </g>
    <g id="text_7">
     <!-- Call index -->
     <g transform="translate(1792.281875 706.316563) scale(0.1 -0.1)">
      <defs>
       <path id="DejaVuSans-43" d="M 4122 4306 
L 4122 3641 
Q 3803 3938 3442 4084 
Q 3081 4231 2675 4231 
Q 1875 4231 1450 3742 
Q 1025 3253 1025 2328 
Q 1025 1406 1450 917 
Q 1875 428 2675 428 
Q 3081 428 3442 575 
Q 3803 722 4122 1019 
L 4122 359 
Q 3791 134 3420 21 
Q 3050 -91 2638 -91 
Q 1578 -91 968 557 
Q 359 1206 359 2328 
Q 359 3453 968 4101 
Q 1578 4750 2638 4750 
Q 3056 4750 3426 4639 
Q 3797 4528 4122 4306 
z
" transform="scale(0.015625)"/>
       <path id="DejaVuSans-61" d="M 2194 1759 
Q 1497 1759 1228 1600 
Q 959 1441 959 1056 
Q 959 750 1161 570 
Q 1363 391 1709 391 
Q 2188 391 2477 730 
Q 2766 1069 2766 1631 
L 2766 1759 
L 2194 1759 
z
M 3341 1997 
L 3341 0 
L 2766 0 
L 2766 531 
Q 2569 213 2275 61 
Q 1981 -91 1556 -91 
Q 1019 -91 701 211 
Q 384 513 384 1019 
Q 384 1609 779 1909 
Q 1175 2209 1959 2209 
L 2766 2209 
L 2766 2266 
Q 2766 2663 2505 2880 
Q 2244 3097 1772 3097 
Q 1472 3097 1187 3025 
Q 903 2953 641 2809 
L 641 3341 
Q 956 3463 1253 3523 
Q 1550 3584 1831 3584 
Q 2591 3584 2966 3190 
Q 3341 2797 3341 1997 
z
" transform="scale(0.015625)"/>
       <path id="DejaVuSans-6c" d="M 603 4863 
L 1178 4863 
L 1178 0 
L 603 0 
L 603 4863 
z
" transform="scale(0.015625)"/>
       <path id="DejaVuSans-20" transform="scale(0.015625)"/>
       <path id="DejaVuSans-69" d="M 603 3500 
L 1178 3500 
L 1178 0 
L 603 0 
L 603 3500 
z
M 603 4863 
L 1178 4863 
L 1178 4134 
L 603 4134 
L 603 4863 
z
" transform="scale(0.015625)"/>
       <path id="DejaVuSans-6e" d="M 3513 2113 
L 3513 0 
L 2938 0 
L 2938 2094 
Q 2938 2591 2744 2837 
Q 2550 3084 2163 3084 
Q 1697 3084 1428 2787 
Q 1159 2491 1159 1978 
L 1159 0 
L 581 0 
L 581 3500 
L 1159 3500 
L 1159 2956 
Q 1366 3272 1645 3428 
Q 1925 3584 2291 3584 
Q 2894 3584 3203 3211 
Q 3513 2838 3513 2113 
z
" transform="scale(0.015625)"/>
       <path id="DejaVuSans-64" d="M 2906 2969 
L 2906 4863 
L 3481 4863 
L 3481 0 
L 2906 0 
L 2906 525 
Q 2725 213 2448 61 
Q 2172 -91 1784 -91 
Q 1150 -91 751 415 
Q 353 922 353 1747 
Q 353 2572 751 3078 
Q 1150 3584 1784 3584 
Q 2172 3584 2448 3432 
Q 2725 3281 2906 2969 
z
M 947 1747 
Q 947 1113 1208 752 
Q 1469 391 1925 391 
Q 2381 391 2643 752 
Q 2906 1113 2906 1747 
Q 2906 2381 2643 2742 
Q 2381 3103 1925 3103 
Q 1469 3103 1208 2742 
Q 947 2381 947 1747 
z
" transform="scale(0.015625)"/>
       <path id="DejaVuSans-65" d="M 3597 1894 
L 3597 1613 
L 953 1613 
Q 991 1019 1311 708 
Q 1631 397 2203 397 
Q 2534 397 2845 478 
Q 3156 559 3463 722 
L 3463 178 
Q 3153 47 2828 -22 
Q 2503 -91 2169 -91 
Q 1331 -91 842 396 
Q 353 884 353 1716 
Q 353 2575 817 3079 
Q 1281 3584 2069 3584 
Q 2775 3584 3186 3129 
Q 3597 2675 3597 1894 
z
M 3022 2063 
Q 3016 2534 2758 2815 
Q 2500 3097 2075 3097 
Q 1594 3097 1305 2825 
Q 1016 2553 972 2059 
L 3022 2063 
z
" transform="scale(0.015625)"/>
       <path id="DejaVuSans-78" d="M 3513 3500 
L 2247 1797 
L 3578 0 
L 2900 0 
L 1881 1375 
L 863 0 
L 184 0 
L 1544 1831 
L 300 3500 
L 978 3500 
L 1906 2253 
L 2834 3500 
L 3513 3500 
z
" transform="scale(0.015625)"/>
      </defs>
      <use xlink:href="#DejaVuSans-43"/>
      <use xlink:href="#DejaVuSans-61" transform="translate(69.824219 0)"/>
      <use xlink:href="#DejaVuSans-6c" transform="translate(131.103516 0)"/>
      <use xlink:href="#DejaVuSans-6c" transform="translate(158.886719 0)"/>
      <use xlink:href="#DejaVuSans-20" transform="translate(186.669922 0)"/>
      <use xlink:href="#DejaVuSans-69" transform="translate(218.457031 0)"/>
      <use xlink:href="#DejaVuSans-6e" transform="translate(246.240234 0)"/>
      <use xlink:href="#DejaVuSans-64" transform="translate(309.619141 0)"/>
      <use xlink:href="#DejaVuSans-65" transform="translate(373.095703 0)"/>
      <use xlink:href="#DejaVuSans-78" transform="translate(432.869141 0)"/>
     </g>
    </g>
   </g>
   <g id="matplotlib.axis_2">
    <g id="ytick_1">
     <g id="line2d_13">
      <path d="M 44.57 600.444767 
L 3589.2 600.444767 
" clip-path="url(#p9911cf58a6)" style="fill: none; stroke: #b0b0b0; stroke-width: 0.8; stroke-linecap: square"/>
     </g>
     <g id="line2d_14">
      <defs>
       <path id="m0df556ada1" d="M 0 0 
L -3.5 0 
" style="stroke: #000000; stroke-width: 0.8"/>
      </defs>
      <g>
       <use xlink:href="#m0df556ada1" x="44.57" y="600.444767" style="stroke: #000000; stroke-width: 0.8"/>
      </g>
     </g>
     <g id="text_8">
      <!-- 60 -->
      <g transform="translate(24.845 604.243985) scale(0.1 -0.1)">
       <use xlink:href="#DejaVuSans-36"/>
       <use xlink:href="#DejaVuSans-30" transform="translate(63.623047 0)"/>
      </g>
     </g>
    </g>
    <g id="ytick_2">
     <g id="line2d_15">
      <path d="M 44.57 520.449681 
L 3589.2 520.449681 
" clip-path="url(#p9911cf58a6)" style="fill: none; stroke: #b0b0b0; stroke-width: 0.8; stroke-linecap: square"/>
     </g>
     <g id="line2d_16">
      <g>
       <use xlink:href="#m0df556ada1" x="44.57" y="520.449681" style="stroke: #000000; stroke-width: 0.8"/>
      </g>
     </g>
     <g id="text_9">
      <!-- 65 -->
      <g transform="translate(24.845 524.248899) scale(0.1 -0.1)">
       <defs>
        <path id="DejaVuSans-35" d="M 691 4666 
L 3169 4666 
L 3169 4134 
L 1269 4134 
L 1269 2991 
Q 1406 3038 1543 3061 
Q 1681 3084 1819 3084 
Q 2600 3084 3056 2656 
Q 3513 2228 3513 1497 
Q 3513 744 3044 326 
Q 2575 -91 1722 -91 
Q 1428 -91 1123 -41 
Q 819 9 494 109 
L 494 744 
Q 775 591 1075 516 
Q 1375 441 1709 441 
Q 2250 441 2565 725 
Q 2881 1009 2881 1497 
Q 2881 1984 2565 2268 
Q 2250 2553 1709 2553 
Q 1456 2553 1204 2497 
Q 953 2441 691 2322 
L 691 4666 
z
" transform="scale(0.015625)"/>
       </defs>
       <use xlink:href="#DejaVuSans-36"/>
       <use xlink:href="#DejaVuSans-35" transform="translate(63.623047 0)"/>
      </g>
     </g>
    </g>
    <g id="ytick_3">
     <g id="line2d_17">
      <path d="M 44.57 440.454595 
L 3589.2 440.454595 
" clip-path="url(#p9911cf58a6)" style="fill: none; stroke: #b0b0b0; stroke-width: 0.8; stroke-linecap: square"/>
     </g>
     <g id="line2d_18">
      <g>
       <use xlink:href="#m0df556ada1" x="44.57" y="440.454595" style="stroke: #000000; stroke-width: 0.8"/>
      </g>
     </g>
     <g id="text_10">
      <!-- 70 -->
      <g transform="translate(24.845 444.253813) scale(0.1 -0.1)">
       <defs>
        <path id="DejaVuSans-37" d="M 525 4666 
L 3525 4666 
L 3525 4397 
L 1831 0 
L 1172 0 
L 2766 4134 
L 525 4134 
L 525 4666 
z
" transform="scale(0.015625)"/>
       </defs>
       <use xlink:href="#DejaVuSans-37"/>
       <use xlink:href="#DejaVuSans-30" transform="translate(63.623047 0)"/>
      </g>
     </g>
    </g>
    <g id="ytick_4">
     <g id="line2d_19">
      <path d="M 44.57 360.459509 
L 3589.2 360.459509 
" clip-path="url(#p9911cf58a6)" style="fill: none; stroke: #b0b0b0; stroke-width: 0.8; stroke-linecap: square"/>
     </g>
     <g id="line2d_20">
      <g>
       <use xlink:href="#m0df556ada1" x="44.57" y="360.459509" style="stroke: #000000; stroke-width: 0.8"/>
      </g>
     </g>
     <g id="text_11">
      <!-- 75 -->
      <g transform="translate(24.845 364.258727) scale(0.1 -0.1)">
       <use xlink:href="#DejaVuSans-37"/>
       <use xlink:href="#DejaVuSans-35" transform="translate(63.623047 0)"/>
      </g>
     </g>
    </g>
    <g id="ytick_5">
     <g id="line2d_21">
      <path d="M 44.57 280.464423 
L 3589.2 280.464423 
" clip-path="url(#p9911cf58a6)" style="fill: none; stroke: #b0b0b0; stroke-width: 0.8; stroke-linecap: square"/>
     </g>
     <g id="line2d_22">
      <g>
       <use xlink:href="#m0df556ada1" x="44.57" y="280.464423" style="stroke: #000000; stroke-width: 0.8"/>
      </g>
     </g>
     <g id="text_12">
      <!-- 80 -->
      <g transform="translate(24.845 284.263641) scale(0.1 -0.1)">
       <use xlink:href="#DejaVuSans-38"/>
       <use xlink:href="#DejaVuSans-30" transform="translate(63.623047 0)"/>
      </g>
     </g>
    </g>
    <g id="ytick_6">
     <g id="line2d_23">
      <path d="M 44.57 200.469337 
L 3589.2 200.469337 
" clip-path="url(#p9911cf58a6)" style="fill: none; stroke: #b0b0b0; stroke-width: 0.8; stroke-linecap: square"/>
     </g>
     <g id="line2d_24">
      <g>
       <use xlink:href="#m0df556ada1" x="44.57" y="200.469337" style="stroke: #000000; stroke-width: 0.8"/>
      </g>
     </g>
     <g id="text_13">
      <!-- 85 -->
      <g transform="translate(24.845 204.268555) scale(0.1 -0.1)">
       <use xlink:href="#DejaVuSans-38"/>
       <use xlink:href="#DejaVuSans-35" transform="translate(63.623047 0)"/>
      </g>
     </g>
    </g>
    <g id="ytick_7">
     <g id="line2d_25">
      <path d="M 44.57 120.474251 
L 3589.2 120.474251 
" clip-path="url(#p9911cf58a6)" style="fill: none; stroke: #b0b0b0; stroke-width: 0.8; stroke-linecap: square"/>
     </g>
     <g id="line2d_26">
      <g>
       <use xlink:href="#m0df556ada1" x="44.57" y="120.474251" style="stroke: #000000; stroke-width: 0.8"/>
      </g>
     </g>
     <g id="text_14">
      <!-- 90 -->
      <g transform="translate(24.845 124.273469) scale(0.1 -0.1)">
       <defs>
        <path id="DejaVuSans-39" d="M 703 97 
L 703 672 
Q 941 559 1184 500 
Q 1428 441 1663 441 
Q 2288 441 2617 861 
Q 2947 1281 2994 2138 
Q 2813 1869 2534 1725 
Q 2256 1581 1919 1581 
Q 1219 1581 811 2004 
Q 403 2428 403 3163 
Q 403 3881 828 4315 
Q 1253 4750 1959 4750 
Q 2769 4750 3195 4129 
Q 3622 3509 3622 2328 
Q 3622 1225 3098 567 
Q 2575 -91 1691 -91 
Q 1453 -91 1209 -44 
Q 966 3 703 97 
z
M 1959 2075 
Q 2384 2075 2632 2365 
Q 2881 2656 2881 3163 
Q 2881 3666 2632 3958 
Q 2384 4250 1959 4250 
Q 1534 4250 1286 3958 
Q 1038 3666 1038 3163 
Q 1038 2656 1286 2365 
Q 1534 2075 1959 2075 
z
" transform="scale(0.015625)"/>
       </defs>
       <use xlink:href="#DejaVuSans-39"/>
       <use xlink:href="#DejaVuSans-30" transform="translate(63.623047 0)"/>
      </g>
     </g>
    </g>
    <g id="ytick_8">
     <g id="line2d_27">
      <path d="M 44.57 40.479165 
L 3589.2 40.479165 
" clip-path="url(#p9911cf58a6)" style="fill: none; stroke: #b0b0b0; stroke-width: 0.8; stroke-linecap: square"/>
     </g>
     <g id="line2d_28">
      <g>
       <use xlink:href="#m0df556ada1" x="44.57" y="40.479165" style="stroke: #000000; stroke-width: 0.8"/>
      </g>
     </g>
     <g id="text_15">
      <!-- 95 -->
      <g transform="translate(24.845 44.278383) scale(0.1 -0.1)">
       <use xlink:href="#DejaVuSans-39"/>
       <use xlink:href="#DejaVuSans-35" transform="translate(63.623047 0)"/>
      </g>
     </g>
    </g>
    <g id="text_16">
     <!-- Latency -->
     <g transform="translate(18.765312 372.224063) rotate(-90) scale(0.1 -0.1)">
      <defs>
       <path id="DejaVuSans-4c" d="M 628 4666 
L 1259 4666 
L 1259 531 
L 3531 531 
L 3531 0 
L 628 0 
L 628 4666 
z
" transform="scale(0.015625)"/>
       <path id="DejaVuSans-74" d="M 1172 4494 
L 1172 3500 
L 2356 3500 
L 2356 3053 
L 1172 3053 
L 1172 1153 
Q 1172 725 1289 603 
Q 1406 481 1766 481 
L 2356 481 
L 2356 0 
L 1766 0 
Q 1100 0 847 248 
Q 594 497 594 1153 
L 594 3053 
L 172 3053 
L 172 3500 
L 594 3500 
L 594 4494 
L 1172 4494 
z
" transform="scale(0.015625)"/>
       <path id="DejaVuSans-63" d="M 3122 3366 
L 3122 2828 
Q 2878 2963 2633 3030 
Q 2388 3097 2138 3097 
Q 1578 3097 1268 2742 
Q 959 2388 959 1747 
Q 959 1106 1268 751 
Q 1578 397 2138 397 
Q 2388 397 2633 464 
Q 2878 531 3122 666 
L 3122 134 
Q 2881 22 2623 -34 
Q 2366 -91 2075 -91 
Q 1284 -91 818 406 
Q 353 903 353 1747 
Q 353 2603 823 3093 
Q 1294 3584 2113 3584 
Q 2378 3584 2631 3529 
Q 2884 3475 3122 3366 
z
" transform="scale(0.015625)"/>
       <path id="DejaVuSans-79" d="M 2059 -325 
Q 1816 -950 1584 -1140 
Q 1353 -1331 966 -1331 
L 506 -1331 
L 506 -850 
L 844 -850 
Q 1081 -850 1212 -737 
Q 1344 -625 1503 -206 
L 1606 56 
L 191 3500 
L 800 3500 
L 1894 763 
L 2988 3500 
L 3597 3500 
L 2059 -325 
z
" transform="scale(0.015625)"/>
      </defs>
      <use xlink:href="#DejaVuSans-4c"/>
      <use xlink:href="#DejaVuSans-61" transform="translate(55.712891 0)"/>
      <use xlink:href="#DejaVuSans-74" transform="translate(116.992188 0)"/>
      <use xlink:href="#DejaVuSans-65" transform="translate(156.201172 0)"/>
      <use xlink:href="#DejaVuSans-6e" transform="translate(217.724609 0)"/>
      <use xlink:href="#DejaVuSans-63" transform="translate(281.103516 0)"/>
      <use xlink:href="#DejaVuSans-79" transform="translate(336.083984 0)"/>
     </g>
    </g>
   </g>
   <g id="line2d_29">
    <path d="M 205.689545 488.451646 
L 208.915162 552.447715 
L 212.140779 568.446732 
L 215.366395 552.447715 
L 218.592012 584.445749 
L 221.817628 440.454595 
L 225.043245 568.446732 
L 228.268861 568.446732 
L 231.494478 392.457543 
L 234.720094 328.461474 
L 237.945711 568.446732 
L 244.396944 504.450663 
L 247.62256 568.446732 
L 250.848177 568.446732 
L 254.073793 600.444767 
L 257.29941 520.449681 
L 260.525026 552.447715 
L 263.750643 520.449681 
L 266.976259 584.445749 
L 270.201876 568.446732 
L 273.427492 472.452629 
L 276.653109 504.450663 
L 279.878726 488.451646 
L 283.104342 584.445749 
L 286.329959 536.448698 
L 289.555575 584.445749 
L 292.781192 536.448698 
L 296.006808 600.444767 
L 299.232425 568.446732 
L 302.458041 296.46344 
L 305.683658 552.447715 
L 308.909274 616.443784 
L 312.134891 552.447715 
L 315.360507 584.445749 
L 318.586124 568.446732 
L 321.81174 568.446732 
L 325.037357 584.445749 
L 328.262973 552.447715 
L 331.48859 600.444767 
L 334.714206 424.455577 
L 337.939823 584.445749 
L 344.391056 584.445749 
L 347.616673 552.447715 
L 350.842289 552.447715 
L 354.067906 520.449681 
L 357.293522 552.447715 
L 360.519139 408.45656 
L 363.744755 520.449681 
L 366.970372 520.449681 
L 370.195988 552.447715 
L 373.421605 600.444767 
L 376.647221 584.445749 
L 379.872838 424.455577 
L 383.098454 600.444767 
L 386.324071 600.444767 
L 389.549687 552.447715 
L 392.775304 536.448698 
L 396.00092 568.446732 
L 399.226537 536.448698 
L 402.452154 584.445749 
L 405.67777 600.444767 
L 408.903387 568.446732 
L 412.129003 504.450663 
L 415.35462 584.445749 
L 418.580236 600.444767 
L 421.805853 632.442801 
L 425.031469 600.444767 
L 428.257086 520.449681 
L 434.708319 616.443784 
L 437.933935 552.447715 
L 441.159552 568.446732 
L 444.385168 552.447715 
L 447.610785 616.443784 
L 450.836401 536.448698 
L 454.062018 584.445749 
L 457.287634 616.443784 
L 460.513251 520.449681 
L 463.738868 360.459509 
L 470.190101 552.447715 
L 473.415717 616.443784 
L 476.641334 552.447715 
L 479.86695 552.447715 
L 483.092567 600.444767 
L 486.318183 568.446732 
L 489.5438 568.446732 
L 492.769416 344.460491 
L 495.995033 488.451646 
L 499.220649 440.454595 
L 502.446266 568.446732 
L 505.671882 584.445749 
L 512.123115 552.447715 
L 515.348732 568.446732 
L 518.574348 568.446732 
L 521.799965 552.447715 
L 525.025581 584.445749 
L 531.476815 552.447715 
L 534.702431 456.453612 
L 537.928048 568.446732 
L 541.153664 472.452629 
L 544.379281 568.446732 
L 547.604897 584.445749 
L 550.830514 632.442801 
L 554.05613 472.452629 
L 557.281747 568.446732 
L 560.507363 552.447715 
L 563.73298 584.445749 
L 566.958596 584.445749 
L 570.184213 552.447715 
L 573.409829 600.444767 
L 579.861062 504.450663 
L 583.086679 568.446732 
L 586.312295 536.448698 
L 589.537912 552.447715 
L 592.763529 584.445749 
L 595.989145 584.445749 
L 599.214762 568.446732 
L 602.440378 568.446732 
L 605.665995 552.447715 
L 608.891611 584.445749 
L 612.117228 600.444767 
L 625.019694 552.447715 
L 637.92216 600.444767 
L 641.147776 504.450663 
L 644.373393 584.445749 
L 647.599009 504.450663 
L 650.824626 568.446732 
L 663.727092 552.447715 
L 666.952709 584.445749 
L 670.178325 568.446732 
L 673.403942 408.45656 
L 676.629558 520.449681 
L 679.855175 600.444767 
L 683.080791 536.448698 
L 686.306408 584.445749 
L 689.532024 552.447715 
L 695.983257 552.447715 
L 699.208874 584.445749 
L 702.43449 568.446732 
L 705.660107 424.455577 
L 708.885723 200.469337 
L 712.11134 584.445749 
L 715.336957 616.443784 
L 718.562573 568.446732 
L 721.78819 616.443784 
L 725.013806 600.444767 
L 728.239423 616.443784 
L 734.690656 520.449681 
L 737.916272 552.447715 
L 741.141889 568.446732 
L 744.367505 616.443784 
L 747.593122 600.444767 
L 750.818738 488.451646 
L 754.044355 552.447715 
L 757.269971 536.448698 
L 760.495588 584.445749 
L 763.721204 408.45656 
L 766.946821 536.448698 
L 770.172437 488.451646 
L 773.398054 568.446732 
L 779.849287 536.448698 
L 783.074904 584.445749 
L 786.30052 552.447715 
L 789.526137 552.447715 
L 792.751753 472.452629 
L 795.97737 488.451646 
L 799.202986 536.448698 
L 802.428603 568.446732 
L 805.654219 568.446732 
L 808.879836 488.451646 
L 812.105452 552.447715 
L 815.331069 584.445749 
L 818.556685 584.445749 
L 821.782302 552.447715 
L 825.007918 584.445749 
L 828.233535 376.458526 
L 831.459151 520.449681 
L 834.684768 568.446732 
L 837.910384 584.445749 
L 841.136001 568.446732 
L 844.361618 520.449681 
L 847.587234 296.46344 
L 850.812851 280.464423 
L 854.038467 408.45656 
L 857.264084 632.442801 
L 860.4897 568.446732 
L 863.715317 584.445749 
L 866.940933 456.453612 
L 870.16655 616.443784 
L 873.392166 248.466388 
L 876.617783 584.445749 
L 879.843399 568.446732 
L 883.069016 504.450663 
L 886.294632 328.461474 
L 905.648332 616.443784 
L 908.873948 600.444767 
L 912.099565 536.448698 
L 915.325181 360.459509 
L 918.550798 456.453612 
L 921.776414 584.445749 
L 925.002031 552.447715 
L 928.227647 584.445749 
L 931.453264 632.442801 
L 934.67888 520.449681 
L 937.904497 584.445749 
L 941.130113 392.457543 
L 944.35573 600.444767 
L 947.581346 584.445749 
L 950.806963 584.445749 
L 954.032579 536.448698 
L 960.483812 568.446732 
L 963.709429 552.447715 
L 966.935046 616.443784 
L 970.160662 568.446732 
L 973.386279 552.447715 
L 976.611895 392.457543 
L 979.837512 568.446732 
L 983.063128 456.453612 
L 986.288745 584.445749 
L 989.514361 536.448698 
L 995.965594 568.446732 
L 999.191211 520.449681 
L 1002.416827 520.449681 
L 1005.642444 600.444767 
L 1008.86806 552.447715 
L 1012.093677 600.444767 
L 1015.319293 584.445749 
L 1018.54491 520.449681 
L 1021.770526 584.445749 
L 1024.996143 488.451646 
L 1028.221759 568.446732 
L 1031.447376 584.445749 
L 1034.672993 568.446732 
L 1037.898609 584.445749 
L 1041.124226 472.452629 
L 1047.575459 600.444767 
L 1050.801075 536.448698 
L 1054.026692 536.448698 
L 1057.252308 616.443784 
L 1060.477925 472.452629 
L 1063.703541 584.445749 
L 1066.929158 600.444767 
L 1070.154774 584.445749 
L 1073.380391 472.452629 
L 1076.606007 584.445749 
L 1079.831624 520.449681 
L 1083.05724 552.447715 
L 1086.282857 536.448698 
L 1089.508473 488.451646 
L 1092.73409 584.445749 
L 1095.959707 584.445749 
L 1099.185323 280.464423 
L 1102.41094 536.448698 
L 1105.636556 56.478182 
L 1108.862173 472.452629 
L 1112.087789 504.450663 
L 1115.313406 552.447715 
L 1118.539022 456.453612 
L 1121.764639 536.448698 
L 1124.990255 376.458526 
L 1128.215872 392.457543 
L 1131.441488 584.445749 
L 1134.667105 552.447715 
L 1137.892721 616.443784 
L 1141.118338 568.446732 
L 1144.343954 552.447715 
L 1147.569571 568.446732 
L 1150.795187 328.461474 
L 1154.020804 552.447715 
L 1157.246421 488.451646 
L 1160.472037 616.443784 
L 1166.92327 584.445749 
L 1170.148887 552.447715 
L 1173.374503 584.445749 
L 1176.60012 584.445749 
L 1179.825736 632.442801 
L 1183.051353 536.448698 
L 1186.276969 600.444767 
L 1192.728202 536.448698 
L 1195.953819 568.446732 
L 1199.179435 472.452629 
L 1202.405052 600.444767 
L 1205.630668 584.445749 
L 1208.856285 536.448698 
L 1212.081901 552.447715 
L 1215.307518 600.444767 
L 1218.533134 536.448698 
L 1221.758751 520.449681 
L 1224.984368 552.447715 
L 1231.435601 584.445749 
L 1234.661217 568.446732 
L 1237.886834 600.444767 
L 1241.11245 520.449681 
L 1244.338067 632.442801 
L 1247.563683 632.442801 
L 1250.7893 568.446732 
L 1254.014916 632.442801 
L 1257.240533 600.444767 
L 1260.466149 424.455577 
L 1263.691766 568.446732 
L 1266.917382 600.444767 
L 1270.142999 568.446732 
L 1276.594232 568.446732 
L 1279.819848 616.443784 
L 1283.045465 616.443784 
L 1286.271082 648.441818 
L 1292.722315 616.443784 
L 1295.947931 552.447715 
L 1299.173548 552.447715 
L 1302.399164 584.445749 
L 1305.624781 536.448698 
L 1308.850397 600.444767 
L 1312.076014 600.444767 
L 1315.30163 616.443784 
L 1318.527247 552.447715 
L 1321.752863 536.448698 
L 1324.97848 504.450663 
L 1328.204096 584.445749 
L 1337.880946 584.445749 
L 1350.783412 488.451646 
L 1363.685878 376.458526 
L 1366.911495 600.444767 
L 1370.137111 632.442801 
L 1373.362728 648.441818 
L 1376.588344 552.447715 
L 1379.813961 360.459509 
L 1383.039577 312.462457 
L 1386.265194 632.442801 
L 1389.49081 584.445749 
L 1392.716427 616.443784 
L 1395.942043 184.470319 
L 1402.393276 616.443784 
L 1405.618893 648.441818 
L 1408.84451 552.447715 
L 1412.070126 584.445749 
L 1415.295743 632.442801 
L 1424.972592 616.443784 
L 1428.198209 584.445749 
L 1431.423825 632.442801 
L 1434.649442 536.448698 
L 1437.875058 520.449681 
L 1441.100675 632.442801 
L 1444.326291 616.443784 
L 1447.551908 632.442801 
L 1450.777524 568.446732 
L 1454.003141 632.442801 
L 1457.228757 632.442801 
L 1460.454374 552.447715 
L 1463.67999 600.444767 
L 1466.905607 600.444767 
L 1470.131223 632.442801 
L 1473.35684 552.447715 
L 1479.808073 616.443784 
L 1483.03369 568.446732 
L 1486.259306 632.442801 
L 1489.484923 600.444767 
L 1492.710539 632.442801 
L 1499.161772 600.444767 
L 1502.387389 568.446732 
L 1505.613005 600.444767 
L 1508.838622 408.45656 
L 1512.064238 552.447715 
L 1515.289855 616.443784 
L 1518.515471 552.447715 
L 1524.966704 648.441818 
L 1528.192321 648.441818 
L 1531.417937 488.451646 
L 1534.643554 616.443784 
L 1541.094787 584.445749 
L 1544.320404 600.444767 
L 1547.54602 568.446732 
L 1550.771637 584.445749 
L 1553.997253 648.441818 
L 1557.22287 568.446732 
L 1560.448486 472.452629 
L 1563.674103 584.445749 
L 1566.899719 600.444767 
L 1570.125336 584.445749 
L 1573.350952 584.445749 
L 1576.576569 632.442801 
L 1579.802185 600.444767 
L 1583.027802 648.441818 
L 1586.253418 648.441818 
L 1589.479035 536.448698 
L 1592.704651 520.449681 
L 1595.930268 552.447715 
L 1599.155885 616.443784 
L 1602.381501 568.446732 
L 1608.832734 280.464423 
L 1612.058351 456.453612 
L 1615.283967 600.444767 
L 1618.509584 472.452629 
L 1621.7352 520.449681 
L 1624.960817 552.447715 
L 1628.186433 616.443784 
L 1631.41205 584.445749 
L 1634.637666 616.443784 
L 1641.088899 600.444767 
L 1644.314516 616.443784 
L 1647.540132 648.441818 
L 1650.765749 616.443784 
L 1653.991365 632.442801 
L 1657.216982 584.445749 
L 1660.442599 584.445749 
L 1663.668215 536.448698 
L 1666.893832 648.441818 
L 1670.119448 632.442801 
L 1676.570681 632.442801 
L 1679.796298 488.451646 
L 1683.021914 648.441818 
L 1686.247531 488.451646 
L 1689.473147 600.444767 
L 1692.698764 648.441818 
L 1695.92438 488.451646 
L 1699.149997 632.442801 
L 1702.375613 504.450663 
L 1705.60123 616.443784 
L 1708.826846 616.443784 
L 1712.052463 552.447715 
L 1715.278079 648.441818 
L 1718.503696 600.444767 
L 1721.729312 600.444767 
L 1724.954929 632.442801 
L 1728.180546 552.447715 
L 1731.406162 552.447715 
L 1734.631779 584.445749 
L 1737.857395 440.454595 
L 1741.083012 600.444767 
L 1744.308628 600.444767 
L 1747.534245 504.450663 
L 1750.759861 600.444767 
L 1753.985478 536.448698 
L 1757.211094 632.442801 
L 1760.436711 584.445749 
L 1763.662327 600.444767 
L 1766.887944 536.448698 
L 1770.11356 616.443784 
L 1773.339177 488.451646 
L 1776.564793 520.449681 
L 1779.79041 472.452629 
L 1783.016026 472.452629 
L 1786.241643 456.453612 
L 1789.46726 616.443784 
L 1812.046575 392.457543 
L 1815.272192 440.454595 
L 1818.497808 392.457543 
L 1821.723425 376.458526 
L 1824.949041 632.442801 
L 1837.851507 296.46344 
L 1841.077124 568.446732 
L 1850.753974 616.443784 
L 1853.97959 648.441818 
L 1857.205207 584.445749 
L 1860.430823 632.442801 
L 1863.65644 456.453612 
L 1866.882056 552.447715 
L 1870.107673 472.452629 
L 1873.333289 568.446732 
L 1876.558906 552.447715 
L 1883.010139 472.452629 
L 1886.235755 600.444767 
L 1889.461372 584.445749 
L 1892.686988 632.442801 
L 1895.912605 584.445749 
L 1899.138221 360.459509 
L 1902.363838 552.447715 
L 1905.589454 632.442801 
L 1908.815071 552.447715 
L 1912.040688 552.447715 
L 1915.266304 632.442801 
L 1918.491921 632.442801 
L 1921.717537 584.445749 
L 1931.394387 408.45656 
L 1937.84562 632.442801 
L 1941.071236 632.442801 
L 1944.296853 488.451646 
L 1947.522469 648.441818 
L 1950.748086 616.443784 
L 1953.973702 600.444767 
L 1957.199319 600.444767 
L 1960.424935 520.449681 
L 1963.650552 488.451646 
L 1966.876168 632.442801 
L 1970.101785 520.449681 
L 1973.327401 648.441818 
L 1976.553018 632.442801 
L 1979.778635 520.449681 
L 1983.004251 568.446732 
L 1986.229868 600.444767 
L 1989.455484 456.453612 
L 1992.681101 552.447715 
L 1995.906717 632.442801 
L 1999.132334 632.442801 
L 2002.35795 440.454595 
L 2005.583567 488.451646 
L 2008.809183 88.476216 
L 2012.0348 584.445749 
L 2015.260416 536.448698 
L 2018.486033 520.449681 
L 2021.711649 632.442801 
L 2024.937266 552.447715 
L 2028.162882 600.444767 
L 2031.388499 584.445749 
L 2034.614115 584.445749 
L 2037.839732 616.443784 
L 2041.065349 552.447715 
L 2044.290965 616.443784 
L 2047.516582 600.444767 
L 2050.742198 632.442801 
L 2053.967815 648.441818 
L 2057.193431 456.453612 
L 2060.419048 584.445749 
L 2063.644664 632.442801 
L 2066.870281 584.445749 
L 2073.321514 616.443784 
L 2076.54713 600.444767 
L 2079.772747 616.443784 
L 2082.998363 616.443784 
L 2086.22398 584.445749 
L 2089.449596 648.441818 
L 2092.675213 632.442801 
L 2095.900829 632.442801 
L 2099.126446 440.454595 
L 2102.352063 648.441818 
L 2105.577679 552.447715 
L 2108.803296 568.446732 
L 2112.028912 648.441818 
L 2115.254529 648.441818 
L 2118.480145 552.447715 
L 2121.705762 632.442801 
L 2124.931378 632.442801 
L 2128.156995 408.45656 
L 2131.382611 600.444767 
L 2134.608228 584.445749 
L 2137.833844 520.449681 
L 2141.059461 472.452629 
L 2144.285077 600.444767 
L 2147.510694 536.448698 
L 2150.73631 648.441818 
L 2153.961927 584.445749 
L 2157.187543 648.441818 
L 2160.41316 616.443784 
L 2166.864393 616.443784 
L 2170.09001 584.445749 
L 2173.315626 648.441818 
L 2176.541243 568.446732 
L 2182.992476 568.446732 
L 2205.571791 248.466388 
L 2208.797408 536.448698 
L 2212.023024 504.450663 
L 2215.248641 488.451646 
L 2218.474257 600.444767 
L 2231.376724 184.470319 
L 2237.827957 632.442801 
L 2241.053573 648.441818 
L 2247.504806 424.455577 
L 2250.730423 584.445749 
L 2253.956039 632.442801 
L 2257.181656 600.444767 
L 2263.632889 648.441818 
L 2266.858505 632.442801 
L 2270.084122 632.442801 
L 2273.309738 616.443784 
L 2276.535355 392.457543 
L 2279.760971 456.453612 
L 2282.986588 632.442801 
L 2286.212204 616.443784 
L 2289.437821 488.451646 
L 2292.663438 632.442801 
L 2295.889054 632.442801 
L 2299.114671 536.448698 
L 2302.340287 648.441818 
L 2305.565904 632.442801 
L 2308.79152 648.441818 
L 2312.017137 632.442801 
L 2315.242753 648.441818 
L 2318.46837 600.444767 
L 2321.693986 632.442801 
L 2324.919603 568.446732 
L 2328.145219 456.453612 
L 2331.370836 600.444767 
L 2334.596452 536.448698 
L 2337.822069 632.442801 
L 2341.047685 616.443784 
L 2344.273302 648.441818 
L 2347.498918 472.452629 
L 2350.724535 424.455577 
L 2353.950152 584.445749 
L 2357.175768 632.442801 
L 2360.401385 568.446732 
L 2363.627001 536.448698 
L 2366.852618 632.442801 
L 2370.078234 520.449681 
L 2373.303851 600.444767 
L 2376.529467 552.447715 
L 2379.755084 552.447715 
L 2382.9807 440.454595 
L 2386.206317 584.445749 
L 2389.431933 632.442801 
L 2392.65755 648.441818 
L 2399.108783 648.441818 
L 2402.334399 568.446732 
L 2405.560016 584.445749 
L 2408.785632 296.46344 
L 2412.011249 632.442801 
L 2418.462482 536.448698 
L 2421.688099 536.448698 
L 2424.913715 600.444767 
L 2428.139332 488.451646 
L 2431.364948 536.448698 
L 2434.590565 520.449681 
L 2437.816181 440.454595 
L 2441.041798 504.450663 
L 2444.267414 632.442801 
L 2447.493031 616.443784 
L 2450.718647 568.446732 
L 2453.944264 456.453612 
L 2457.16988 552.447715 
L 2460.395497 568.446732 
L 2463.621113 648.441818 
L 2466.84673 568.446732 
L 2470.072346 552.447715 
L 2473.297963 616.443784 
L 2476.523579 648.441818 
L 2479.749196 584.445749 
L 2482.974813 648.441818 
L 2486.200429 568.446732 
L 2489.426046 648.441818 
L 2492.651662 632.442801 
L 2495.877279 520.449681 
L 2499.102895 584.445749 
L 2502.328512 616.443784 
L 2505.554128 632.442801 
L 2508.779745 568.446732 
L 2512.005361 584.445749 
L 2515.230978 648.441818 
L 2518.456594 552.447715 
L 2521.682211 632.442801 
L 2524.907827 648.441818 
L 2528.133444 536.448698 
L 2531.35906 584.445749 
L 2534.584677 472.452629 
L 2537.810293 648.441818 
L 2541.03591 440.454595 
L 2544.261527 536.448698 
L 2547.487143 504.450663 
L 2550.71276 568.446732 
L 2553.938376 568.446732 
L 2557.163993 504.450663 
L 2560.389609 584.445749 
L 2563.615226 616.443784 
L 2570.066459 536.448698 
L 2573.292075 616.443784 
L 2576.517692 472.452629 
L 2579.743308 584.445749 
L 2582.968925 520.449681 
L 2586.194541 648.441818 
L 2589.420158 568.446732 
L 2592.645774 456.453612 
L 2595.871391 616.443784 
L 2599.097007 536.448698 
L 2602.322624 536.448698 
L 2605.548241 408.45656 
L 2608.773857 568.446732 
L 2611.999474 648.441818 
L 2618.450707 648.441818 
L 2621.676323 616.443784 
L 2624.90194 504.450663 
L 2628.127556 520.449681 
L 2631.353173 632.442801 
L 2634.578789 616.443784 
L 2637.804406 632.442801 
L 2641.030022 520.449681 
L 2644.255639 424.455577 
L 2650.706872 568.446732 
L 2653.932488 616.443784 
L 2657.158105 536.448698 
L 2660.383721 488.451646 
L 2663.609338 600.444767 
L 2666.834954 648.441818 
L 2670.060571 616.443784 
L 2673.286188 648.441818 
L 2676.511804 504.450663 
L 2679.737421 632.442801 
L 2682.963037 584.445749 
L 2686.188654 552.447715 
L 2689.41427 552.447715 
L 2692.639887 568.446732 
L 2695.865503 632.442801 
L 2702.316736 632.442801 
L 2705.542353 408.45656 
L 2708.767969 600.444767 
L 2711.993586 632.442801 
L 2715.219202 504.450663 
L 2718.444819 632.442801 
L 2721.670435 424.455577 
L 2724.896052 568.446732 
L 2728.121668 488.451646 
L 2731.347285 520.449681 
L 2737.798518 568.446732 
L 2741.024135 568.446732 
L 2744.249751 648.441818 
L 2747.475368 600.444767 
L 2750.700984 632.442801 
L 2753.926601 648.441818 
L 2760.377834 568.446732 
L 2766.829067 568.446732 
L 2770.054683 616.443784 
L 2773.2803 584.445749 
L 2776.505916 648.441818 
L 2779.731533 584.445749 
L 2782.957149 648.441818 
L 2786.182766 568.446732 
L 2789.408382 648.441818 
L 2795.859616 584.445749 
L 2799.085232 632.442801 
L 2802.310849 648.441818 
L 2805.536465 552.447715 
L 2808.762082 600.444767 
L 2811.987698 632.442801 
L 2815.213315 600.444767 
L 2821.664548 408.45656 
L 2824.890164 568.446732 
L 2828.115781 632.442801 
L 2831.341397 424.455577 
L 2834.567014 504.450663 
L 2837.79263 520.449681 
L 2841.018247 424.455577 
L 2853.920713 312.462457 
L 2866.823179 136.473268 
L 2870.048796 584.445749 
L 2873.274412 536.448698 
L 2876.500029 328.461474 
L 2879.725645 568.446732 
L 2892.628111 408.45656 
L 2895.853728 616.443784 
L 2899.079344 456.453612 
L 2902.304961 552.447715 
L 2905.530577 568.446732 
L 2908.756194 568.446732 
L 2911.98181 472.452629 
L 2915.207427 568.446732 
L 2921.65866 568.446732 
L 2924.884277 552.447715 
L 2928.109893 616.443784 
L 2931.33551 488.451646 
L 2934.561126 552.447715 
L 2937.786743 632.442801 
L 2941.012359 408.45656 
L 2944.237976 376.458526 
L 2947.463592 408.45656 
L 2950.689209 648.441818 
L 2953.914825 504.450663 
L 2957.140442 584.445749 
L 2960.366058 632.442801 
L 2963.591675 584.445749 
L 2966.817291 648.441818 
L 2970.042908 552.447715 
L 2973.268524 504.450663 
L 2976.494141 552.447715 
L 2979.719757 648.441818 
L 2982.945374 632.442801 
L 2986.170991 488.451646 
L 2989.396607 648.441818 
L 2992.622224 584.445749 
L 2999.073457 616.443784 
L 3002.299073 616.443784 
L 3005.52469 536.448698 
L 3008.750306 568.446732 
L 3011.975923 648.441818 
L 3015.201539 632.442801 
L 3018.427156 536.448698 
L 3021.652772 520.449681 
L 3024.878389 552.447715 
L 3028.104005 616.443784 
L 3031.329622 504.450663 
L 3034.555238 632.442801 
L 3037.780855 552.447715 
L 3041.006471 648.441818 
L 3044.232088 648.441818 
L 3047.457705 616.443784 
L 3050.683321 632.442801 
L 3053.908938 536.448698 
L 3057.134554 632.442801 
L 3060.360171 328.461474 
L 3063.585787 648.441818 
L 3066.811404 568.446732 
L 3070.03702 632.442801 
L 3079.71387 184.470319 
L 3082.939486 424.455577 
L 3086.165103 536.448698 
L 3089.390719 584.445749 
L 3092.616336 584.445749 
L 3095.841952 568.446732 
L 3099.067569 328.461474 
L 3102.293185 504.450663 
L 3105.518802 456.453612 
L 3108.744419 360.459509 
L 3111.970035 536.448698 
L 3115.195652 632.442801 
L 3118.421268 616.443784 
L 3121.646885 536.448698 
L 3124.872501 632.442801 
L 3128.098118 648.441818 
L 3131.323734 648.441818 
L 3137.774967 552.447715 
L 3141.000584 568.446732 
L 3144.2262 632.442801 
L 3147.451817 536.448698 
L 3150.677433 552.447715 
L 3153.90305 552.447715 
L 3157.128666 600.444767 
L 3160.354283 600.444767 
L 3163.579899 568.446732 
L 3170.031132 584.445749 
L 3173.256749 600.444767 
L 3176.482366 632.442801 
L 3179.707982 648.441818 
L 3182.933599 552.447715 
L 3186.159215 488.451646 
L 3189.384832 616.443784 
L 3192.610448 440.454595 
L 3195.836065 632.442801 
L 3199.061681 648.441818 
L 3202.287298 520.449681 
L 3205.512914 648.441818 
L 3208.738531 360.459509 
L 3211.964147 648.441818 
L 3215.189764 568.446732 
L 3221.640997 632.442801 
L 3231.317846 552.447715 
L 3234.543463 632.442801 
L 3237.76908 504.450663 
L 3240.994696 600.444767 
L 3244.220313 536.448698 
L 3247.445929 552.447715 
L 3253.897162 648.441818 
L 3257.122779 536.448698 
L 3260.348395 648.441818 
L 3263.574012 632.442801 
L 3266.799628 632.442801 
L 3270.025245 504.450663 
L 3276.476478 648.441818 
L 3279.702094 568.446732 
L 3282.927711 648.441818 
L 3289.378944 472.452629 
L 3292.60456 536.448698 
L 3295.830177 504.450663 
L 3299.055794 552.447715 
L 3302.28141 616.443784 
L 3305.507027 584.445749 
L 3308.732643 616.443784 
L 3315.183876 632.442801 
L 3321.635109 616.443784 
L 3324.860726 648.441818 
L 3331.311959 616.443784 
L 3334.537575 648.441818 
L 3340.988808 552.447715 
L 3344.214425 520.449681 
L 3347.440041 648.441818 
L 3353.891274 648.441818 
L 3357.116891 632.442801 
L 3360.342508 632.442801 
L 3363.568124 584.445749 
L 3366.793741 632.442801 
L 3370.019357 632.442801 
L 3373.244974 584.445749 
L 3376.47059 552.447715 
L 3379.696207 568.446732 
L 3389.373056 648.441818 
L 3395.824289 616.443784 
L 3399.049906 648.441818 
L 3405.501139 616.443784 
L 3408.726755 648.441818 
L 3411.952372 568.446732 
L 3415.177988 504.450663 
L 3418.403605 648.441818 
L 3428.080455 584.445749 
L 3428.080455 584.445749 
" clip-path="url(#p9911cf58a6)" style="fill: none; stroke: #3cb371; stroke-width: 1.5; stroke-linecap: square"/>
   </g>
   <g id="patch_3">
    <path d="M 44.57 678.04 
L 44.57 26.88 
" style="fill: none; stroke: #000000; stroke-width: 0.8; stroke-linejoin: miter; stroke-linecap: square"/>
   </g>
   <g id="patch_4">
    <path d="M 3589.2 678.04 
L 3589.2 26.88 
" style="fill: none; stroke: #000000; stroke-width: 0.8; stroke-linejoin: miter; stroke-linecap: square"/>
   </g>
   <g id="patch_5">
    <path d="M 44.57 678.04 
L 3589.2 678.04 
" style="fill: none; stroke: #000000; stroke-width: 0.8; stroke-linejoin: miter; stroke-linecap: square"/>
   </g>
   <g id="patch_6">
    <path d="M 44.57 26.88 
L 3589.2 26.88 
" style="fill: none; stroke: #000000; stroke-width: 0.8; stroke-linejoin: miter; stroke-linecap: square"/>
   </g>
   <g id="text_17">
    <!-- Latency for chat socket send calls (central 90%) -->
    <g transform="translate(1672.204375 20.88) scale(0.12 -0.12)">
     <defs>
      <path id="DejaVuSans-66" d="M 2375 4863 
L 2375 4384 
L 1825 4384 
Q 1516 4384 1395 4259 
Q 1275 4134 1275 3809 
L 1275 3500 
L 2222 3500 
L 2222 3053 
L 1275 3053 
L 1275 0 
L 697 0 
L 697 3053 
L 147 3053 
L 147 3500 
L 697 3500 
L 697 3744 
Q 697 4328 969 4595 
Q 1241 4863 1831 4863 
L 2375 4863 
z
" transform="scale(0.015625)"/>
      <path id="DejaVuSans-6f" d="M 1959 3097 
Q 1497 3097 1228 2736 
Q 959 2375 959 1747 
Q 959 1119 1226 758 
Q 1494 397 1959 397 
Q 2419 397 2687 759 
Q 2956 1122 2956 1747 
Q 2956 2369 2687 2733 
Q 2419 3097 1959 3097 
z
M 1959 3584 
Q 2709 3584 3137 3096 
Q 3566 2609 3566 1747 
Q 3566 888 3137 398 
Q 2709 -91 1959 -91 
Q 1206 -91 779 398 
Q 353 888 353 1747 
Q 353 2609 779 3096 
Q 1206 3584 1959 3584 
z
" transform="scale(0.015625)"/>
      <path id="DejaVuSans-72" d="M 2631 2963 
Q 2534 3019 2420 3045 
Q 2306 3072 2169 3072 
Q 1681 3072 1420 2755 
Q 1159 2438 1159 1844 
L 1159 0 
L 581 0 
L 581 3500 
L 1159 3500 
L 1159 2956 
Q 1341 3275 1631 3429 
Q 1922 3584 2338 3584 
Q 2397 3584 2469 3576 
Q 2541 3569 2628 3553 
L 2631 2963 
z
" transform="scale(0.015625)"/>
      <path id="DejaVuSans-68" d="M 3513 2113 
L 3513 0 
L 2938 0 
L 2938 2094 
Q 2938 2591 2744 2837 
Q 2550 3084 2163 3084 
Q 1697 3084 1428 2787 
Q 1159 2491 1159 1978 
L 1159 0 
L 581 0 
L 581 4863 
L 1159 4863 
L 1159 2956 
Q 1366 3272 1645 3428 
Q 1925 3584 2291 3584 
Q 2894 3584 3203 3211 
Q 3513 2838 3513 2113 
z
" transform="scale(0.015625)"/>
      <path id="DejaVuSans-73" d="M 2834 3397 
L 2834 2853 
Q 2591 2978 2328 3040 
Q 2066 3103 1784 3103 
Q 1356 3103 1142 2972 
Q 928 2841 928 2578 
Q 928 2378 1081 2264 
Q 1234 2150 1697 2047 
L 1894 2003 
Q 2506 1872 2764 1633 
Q 3022 1394 3022 966 
Q 3022 478 2636 193 
Q 2250 -91 1575 -91 
Q 1294 -91 989 -36 
Q 684 19 347 128 
L 347 722 
Q 666 556 975 473 
Q 1284 391 1588 391 
Q 1994 391 2212 530 
Q 2431 669 2431 922 
Q 2431 1156 2273 1281 
Q 2116 1406 1581 1522 
L 1381 1569 
Q 847 1681 609 1914 
Q 372 2147 372 2553 
Q 372 3047 722 3315 
Q 1072 3584 1716 3584 
Q 2034 3584 2315 3537 
Q 2597 3491 2834 3397 
z
" transform="scale(0.015625)"/>
      <path id="DejaVuSans-6b" d="M 581 4863 
L 1159 4863 
L 1159 1991 
L 2875 3500 
L 3609 3500 
L 1753 1863 
L 3688 0 
L 2938 0 
L 1159 1709 
L 1159 0 
L 581 0 
L 581 4863 
z
" transform="scale(0.015625)"/>
      <path id="DejaVuSans-28" d="M 1984 4856 
Q 1566 4138 1362 3434 
Q 1159 2731 1159 2009 
Q 1159 1288 1364 580 
Q 1569 -128 1984 -844 
L 1484 -844 
Q 1016 -109 783 600 
Q 550 1309 550 2009 
Q 550 2706 781 3412 
Q 1013 4119 1484 4856 
L 1984 4856 
z
" transform="scale(0.015625)"/>
      <path id="DejaVuSans-25" d="M 4653 2053 
Q 4381 2053 4226 1822 
Q 4072 1591 4072 1178 
Q 4072 772 4226 539 
Q 4381 306 4653 306 
Q 4919 306 5073 539 
Q 5228 772 5228 1178 
Q 5228 1588 5073 1820 
Q 4919 2053 4653 2053 
z
M 4653 2450 
Q 5147 2450 5437 2106 
Q 5728 1763 5728 1178 
Q 5728 594 5436 251 
Q 5144 -91 4653 -91 
Q 4153 -91 3862 251 
Q 3572 594 3572 1178 
Q 3572 1766 3864 2108 
Q 4156 2450 4653 2450 
z
M 1428 4353 
Q 1159 4353 1004 4120 
Q 850 3888 850 3481 
Q 850 3069 1003 2837 
Q 1156 2606 1428 2606 
Q 1700 2606 1854 2837 
Q 2009 3069 2009 3481 
Q 2009 3884 1853 4118 
Q 1697 4353 1428 4353 
z
M 4250 4750 
L 4750 4750 
L 1831 -91 
L 1331 -91 
L 4250 4750 
z
M 1428 4750 
Q 1922 4750 2215 4408 
Q 2509 4066 2509 3481 
Q 2509 2891 2217 2550 
Q 1925 2209 1428 2209 
Q 931 2209 642 2551 
Q 353 2894 353 3481 
Q 353 4063 643 4406 
Q 934 4750 1428 4750 
z
" transform="scale(0.015625)"/>
      <path id="DejaVuSans-29" d="M 513 4856 
L 1013 4856 
Q 1481 4119 1714 3412 
Q 1947 2706 1947 2009 
Q 1947 1309 1714 600 
Q 1481 -109 1013 -844 
L 513 -844 
Q 928 -128 1133 580 
Q 1338 1288 1338 2009 
Q 1338 2731 1133 3434 
Q 928 4138 513 4856 
z
" transform="scale(0.015625)"/>
     </defs>
     <use xlink:href="#DejaVuSans-4c"/>
     <use xlink:href="#DejaVuSans-61" transform="translate(55.712891 0)"/>
     <use xlink:href="#DejaVuSans-74" transform="translate(116.992188 0)"/>
     <use xlink:href="#DejaVuSans-65" transform="translate(156.201172 0)"/>
     <use xlink:href="#DejaVuSans-6e" transform="translate(217.724609 0)"/>
     <use xlink:href="#DejaVuSans-63" transform="translate(281.103516 0)"/>
     <use xlink:href="#DejaVuSans-79" transform="translate(336.083984 0)"/>
     <use xlink:href="#DejaVuSans-20" transform="translate(395.263672 0)"/>
     <use xlink:href="#DejaVuSans-66" transform="translate(427.050781 0)"/>
     <use xlink:href="#DejaVuSans-6f" transform="translate(462.255859 0)"/>
     <use xlink:href="#DejaVuSans-72" transform="translate(523.4375 0)"/>
     <use xlink:href="#DejaVuSans-20" transform="translate(564.550781 0)"/>
     <use xlink:href="#DejaVuSans-63" transform="translate(596.337891 0)"/>
     <use xlink:href="#DejaVuSans-68" transform="translate(651.318359 0)"/>
     <use xlink:href="#DejaVuSans-61" transform="translate(714.697266 0)"/>
     <use xlink:href="#DejaVuSans-74" transform="translate(775.976562 0)"/>
     <use xlink:href="#DejaVuSans-20" transform="translate(815.185547 0)"/>
     <use xlink:href="#DejaVuSans-73" transform="translate(846.972656 0)"/>
     <use xlink:href="#DejaVuSans-6f" transform="translate(899.072266 0)"/>
     <use xlink:href="#DejaVuSans-63" transform="translate(960.253906 0)"/>
     <use xlink:href="#DejaVuSans-6b" transform="translate(1015.234375 0)"/>
     <use xlink:href="#DejaVuSans-65" transform="translate(1069.519531 0)"/>
     <use xlink:href="#DejaVuSans-74" transform="translate(1131.042969 0)"/>
     <use xlink:href="#DejaVuSans-20" transform="translate(1170.251953 0)"/>
     <use xlink:href="#DejaVuSans-73" transform="translate(1202.039062 0)"/>
     <use xlink:href="#DejaVuSans-65" transform="translate(1254.138672 0)"/>
     <use xlink:href="#DejaVuSans-6e" transform="translate(1315.662109 0)"/>
     <use xlink:href="#DejaVuSans-64" transform="translate(1379.041016 0)"/>
     <use xlink:href="#DejaVuSans-20" transform="translate(1442.517578 0)"/>
     <use xlink:href="#DejaVuSans-63" transform="translate(1474.304688 0)"/>
     <use xlink:href="#DejaVuSans-61" transform="translate(1529.285156 0)"/>
     <use xlink:href="#DejaVuSans-6c" transform="translate(1590.564453 0)"/>
     <use xlink:href="#DejaVuSans-6c" transform="translate(1618.347656 0)"/>
     <use xlink:href="#DejaVuSans-73" transform="translate(1646.130859 0)"/>
     <use xlink:href="#DejaVuSans-20" transform="translate(1698.230469 0)"/>
     <use xlink:href="#DejaVuSans-28" transform="translate(1730.017578 0)"/>
     <use xlink:href="#DejaVuSans-63" transform="translate(1769.03125 0)"/>
     <use xlink:href="#DejaVuSans-65" transform="translate(1824.011719 0)"/>
     <use xlink:href="#DejaVuSans-6e" transform="translate(1885.535156 0)"/>
     <use xlink:href="#DejaVuSans-74" transform="translate(1948.914062 0)"/>
     <use xlink:href="#DejaVuSans-72" transform="translate(1988.123047 0)"/>
     <use xlink:href="#DejaVuSans-61" transform="translate(2029.236328 0)"/>
     <use xlink:href="#DejaVuSans-6c" transform="translate(2090.515625 0)"/>
     <use xlink:href="#DejaVuSans-20" transform="translate(2118.298828 0)"/>
     <use xlink:href="#DejaVuSans-39" transform="translate(2150.085938 0)"/>
     <use xlink:href="#DejaVuSans-30" transform="translate(2213.708984 0)"/>
     <use xlink:href="#DejaVuSans-25" transform="translate(2277.332031 0)"/>
     <use xlink:href="#DejaVuSans-29" transform="translate(2372.351562 0)"/>
    </g>
   </g>
  </g>
 </g>
 <defs>
  <clipPath id="p9911cf58a6">
   <rect x="44.57" y="26.88" width="3544.63" height="651.16"/>
  </clipPath>
 </defs>
</svg>
