<?xml version="1.0" encoding="utf-8" standalone="no"?>
<!DOCTYPE svg PUBLIC "-//W3C//DTD SVG 1.1//EN"
  "http://www.w3.org/Graphics/SVG/1.1/DTD/svg11.dtd">
<svg xmlns:xlink="http://www.w3.org/1999/xlink" width="3600pt" height="720pt" viewBox="0 0 3600 720" xmlns="http://www.w3.org/2000/svg" version="1.1">
 <metadata>
  <rdf:RDF xmlns:dc="http://purl.org/dc/elements/1.1/" xmlns:cc="http://creativecommons.org/ns#" xmlns:rdf="http://www.w3.org/1999/02/22-rdf-syntax-ns#">
   <cc:Work>
    <dc:type rdf:resource="http://purl.org/dc/dcmitype/StillImage"/>
    <dc:date>2025-07-29T13:45:27.668766</dc:date>
    <dc:format>image/svg+xml</dc:format>
    <dc:creator>
     <cc:Agent>
      <dc:title>Matplotlib v3.10.3, https://matplotlib.org/</dc:title>
     </cc:Agent>
    </dc:creator>
   </cc:Work>
  </rdf:RDF>
 </metadata>
 <defs>
  <style type="text/css">*{stroke-linejoin: round; stroke-linecap: butt}</style>
 </defs>
 <g id="figure_1">
  <g id="patch_1">
   <path d="M 0 720 
L 3600 720 
L 3600 0 
L 0 0 
z
" style="fill: #ffffff"/>
  </g>
  <g id="axes_1">
   <g id="patch_2">
    <path d="M 50.96 678.04 
L 3589.2 678.04 
L 3589.2 26.88 
L 50.96 26.88 
z
" style="fill: #ffffff"/>
   </g>
   <g id="matplotlib.axis_1">
    <g id="xtick_1">
     <g id="line2d_1">
      <path d="M 211.789091 678.04 
L 211.789091 26.88 
" clip-path="url(#pb91bdbb409)" style="fill: none; stroke: #b0b0b0; stroke-width: 0.8; stroke-linecap: square"/>
     </g>
     <g id="line2d_2">
      <defs>
       <path id="md37b988b09" d="M 0 0 
L 0 3.5 
" style="stroke: #000000; stroke-width: 0.8"/>
      </defs>
      <g>
       <use xlink:href="#md37b988b09" x="211.789091" y="678.04" style="stroke: #000000; stroke-width: 0.8"/>
      </g>
     </g>
     <g id="text_1">
      <!-- 0 -->
      <g transform="translate(208.607841 692.638438) scale(0.1 -0.1)">
       <defs>
        <path id="DejaVuSans-30" d="M 2034 4250 
Q 1547 4250 1301 3770 
Q 1056 3291 1056 2328 
Q 1056 1369 1301 889 
Q 1547 409 2034 409 
Q 2525 409 2770 889 
Q 3016 1369 3016 2328 
Q 3016 3291 2770 3770 
Q 2525 4250 2034 4250 
z
M 2034 4750 
Q 2819 4750 3233 4129 
Q 3647 3509 3647 2328 
Q 3647 1150 3233 529 
Q 2819 -91 2034 -91 
Q 1250 -91 836 529 
Q 422 1150 422 2328 
Q 422 3509 836 4129 
Q 1250 4750 2034 4750 
z
" transform="scale(0.015625)"/>
       </defs>
       <use xlink:href="#DejaVuSans-30"/>
      </g>
     </g>
    </g>
    <g id="xtick_2">
     <g id="line2d_3">
      <path d="M 855.749415 678.04 
L 855.749415 26.88 
" clip-path="url(#pb91bdbb409)" style="fill: none; stroke: #b0b0b0; stroke-width: 0.8; stroke-linecap: square"/>
     </g>
     <g id="line2d_4">
      <g>
       <use xlink:href="#md37b988b09" x="855.749415" y="678.04" style="stroke: #000000; stroke-width: 0.8"/>
      </g>
     </g>
     <g id="text_2">
      <!-- 200 -->
      <g transform="translate(846.205665 692.638438) scale(0.1 -0.1)">
       <defs>
        <path id="DejaVuSans-32" d="M 1228 531 
L 3431 531 
L 3431 0 
L 469 0 
L 469 531 
Q 828 903 1448 1529 
Q 2069 2156 2228 2338 
Q 2531 2678 2651 2914 
Q 2772 3150 2772 3378 
Q 2772 3750 2511 3984 
Q 2250 4219 1831 4219 
Q 1534 4219 1204 4116 
Q 875 4013 500 3803 
L 500 4441 
Q 881 4594 1212 4672 
Q 1544 4750 1819 4750 
Q 2544 4750 2975 4387 
Q 3406 4025 3406 3419 
Q 3406 3131 3298 2873 
Q 3191 2616 2906 2266 
Q 2828 2175 2409 1742 
Q 1991 1309 1228 531 
z
" transform="scale(0.015625)"/>
       </defs>
       <use xlink:href="#DejaVuSans-32"/>
       <use xlink:href="#DejaVuSans-30" transform="translate(63.623047 0)"/>
       <use xlink:href="#DejaVuSans-30" transform="translate(127.246094 0)"/>
      </g>
     </g>
    </g>
    <g id="xtick_3">
     <g id="line2d_5">
      <path d="M 1499.709739 678.04 
L 1499.709739 26.88 
" clip-path="url(#pb91bdbb409)" style="fill: none; stroke: #b0b0b0; stroke-width: 0.8; stroke-linecap: square"/>
     </g>
     <g id="line2d_6">
      <g>
       <use xlink:href="#md37b988b09" x="1499.709739" y="678.04" style="stroke: #000000; stroke-width: 0.8"/>
      </g>
     </g>
     <g id="text_3">
      <!-- 400 -->
      <g transform="translate(1490.165989 692.638438) scale(0.1 -0.1)">
       <defs>
        <path id="DejaVuSans-34" d="M 2419 4116 
L 825 1625 
L 2419 1625 
L 2419 4116 
z
M 2253 4666 
L 3047 4666 
L 3047 1625 
L 3713 1625 
L 3713 1100 
L 3047 1100 
L 3047 0 
L 2419 0 
L 2419 1100 
L 313 1100 
L 313 1709 
L 2253 4666 
z
" transform="scale(0.015625)"/>
       </defs>
       <use xlink:href="#DejaVuSans-34"/>
       <use xlink:href="#DejaVuSans-30" transform="translate(63.623047 0)"/>
       <use xlink:href="#DejaVuSans-30" transform="translate(127.246094 0)"/>
      </g>
     </g>
    </g>
    <g id="xtick_4">
     <g id="line2d_7">
      <path d="M 2143.670063 678.04 
L 2143.670063 26.88 
" clip-path="url(#pb91bdbb409)" style="fill: none; stroke: #b0b0b0; stroke-width: 0.8; stroke-linecap: square"/>
     </g>
     <g id="line2d_8">
      <g>
       <use xlink:href="#md37b988b09" x="2143.670063" y="678.04" style="stroke: #000000; stroke-width: 0.8"/>
      </g>
     </g>
     <g id="text_4">
      <!-- 600 -->
      <g transform="translate(2134.126313 692.638438) scale(0.1 -0.1)">
       <defs>
        <path id="DejaVuSans-36" d="M 2113 2584 
Q 1688 2584 1439 2293 
Q 1191 2003 1191 1497 
Q 1191 994 1439 701 
Q 1688 409 2113 409 
Q 2538 409 2786 701 
Q 3034 994 3034 1497 
Q 3034 2003 2786 2293 
Q 2538 2584 2113 2584 
z
M 3366 4563 
L 3366 3988 
Q 3128 4100 2886 4159 
Q 2644 4219 2406 4219 
Q 1781 4219 1451 3797 
Q 1122 3375 1075 2522 
Q 1259 2794 1537 2939 
Q 1816 3084 2150 3084 
Q 2853 3084 3261 2657 
Q 3669 2231 3669 1497 
Q 3669 778 3244 343 
Q 2819 -91 2113 -91 
Q 1303 -91 875 529 
Q 447 1150 447 2328 
Q 447 3434 972 4092 
Q 1497 4750 2381 4750 
Q 2619 4750 2861 4703 
Q 3103 4656 3366 4563 
z
" transform="scale(0.015625)"/>
       </defs>
       <use xlink:href="#DejaVuSans-36"/>
       <use xlink:href="#DejaVuSans-30" transform="translate(63.623047 0)"/>
       <use xlink:href="#DejaVuSans-30" transform="translate(127.246094 0)"/>
      </g>
     </g>
    </g>
    <g id="xtick_5">
     <g id="line2d_9">
      <path d="M 2787.630387 678.04 
L 2787.630387 26.88 
" clip-path="url(#pb91bdbb409)" style="fill: none; stroke: #b0b0b0; stroke-width: 0.8; stroke-linecap: square"/>
     </g>
     <g id="line2d_10">
      <g>
       <use xlink:href="#md37b988b09" x="2787.630387" y="678.04" style="stroke: #000000; stroke-width: 0.8"/>
      </g>
     </g>
     <g id="text_5">
      <!-- 800 -->
      <g transform="translate(2778.086637 692.638438) scale(0.1 -0.1)">
       <defs>
        <path id="DejaVuSans-38" d="M 2034 2216 
Q 1584 2216 1326 1975 
Q 1069 1734 1069 1313 
Q 1069 891 1326 650 
Q 1584 409 2034 409 
Q 2484 409 2743 651 
Q 3003 894 3003 1313 
Q 3003 1734 2745 1975 
Q 2488 2216 2034 2216 
z
M 1403 2484 
Q 997 2584 770 2862 
Q 544 3141 544 3541 
Q 544 4100 942 4425 
Q 1341 4750 2034 4750 
Q 2731 4750 3128 4425 
Q 3525 4100 3525 3541 
Q 3525 3141 3298 2862 
Q 3072 2584 2669 2484 
Q 3125 2378 3379 2068 
Q 3634 1759 3634 1313 
Q 3634 634 3220 271 
Q 2806 -91 2034 -91 
Q 1263 -91 848 271 
Q 434 634 434 1313 
Q 434 1759 690 2068 
Q 947 2378 1403 2484 
z
M 1172 3481 
Q 1172 3119 1398 2916 
Q 1625 2713 2034 2713 
Q 2441 2713 2670 2916 
Q 2900 3119 2900 3481 
Q 2900 3844 2670 4047 
Q 2441 4250 2034 4250 
Q 1625 4250 1398 4047 
Q 1172 3844 1172 3481 
z
" transform="scale(0.015625)"/>
       </defs>
       <use xlink:href="#DejaVuSans-38"/>
       <use xlink:href="#DejaVuSans-30" transform="translate(63.623047 0)"/>
       <use xlink:href="#DejaVuSans-30" transform="translate(127.246094 0)"/>
      </g>
     </g>
    </g>
    <g id="xtick_6">
     <g id="line2d_11">
      <path d="M 3431.590711 678.04 
L 3431.590711 26.88 
" clip-path="url(#pb91bdbb409)" style="fill: none; stroke: #b0b0b0; stroke-width: 0.8; stroke-linecap: square"/>
     </g>
     <g id="line2d_12">
      <g>
       <use xlink:href="#md37b988b09" x="3431.590711" y="678.04" style="stroke: #000000; stroke-width: 0.8"/>
      </g>
     </g>
     <g id="text_6">
      <!-- 1000 -->
      <g transform="translate(3418.865711 692.638438) scale(0.1 -0.1)">
       <defs>
        <path id="DejaVuSans-31" d="M 794 531 
L 1825 531 
L 1825 4091 
L 703 3866 
L 703 4441 
L 1819 4666 
L 2450 4666 
L 2450 531 
L 3481 531 
L 3481 0 
L 794 0 
L 794 531 
z
" transform="scale(0.015625)"/>
       </defs>
       <use xlink:href="#DejaVuSans-31"/>
       <use xlink:href="#DejaVuSans-30" transform="translate(63.623047 0)"/>
       <use xlink:href="#DejaVuSans-30" transform="translate(127.246094 0)"/>
       <use xlink:href="#DejaVuSans-30" transform="translate(190.869141 0)"/>
      </g>
     </g>
    </g>
    <g id="text_7">
     <!-- Call index -->
     <g transform="translate(1795.476875 706.316563) scale(0.1 -0.1)">
      <defs>
       <path id="DejaVuSans-43" d="M 4122 4306 
L 4122 3641 
Q 3803 3938 3442 4084 
Q 3081 4231 2675 4231 
Q 1875 4231 1450 3742 
Q 1025 3253 1025 2328 
Q 1025 1406 1450 917 
Q 1875 428 2675 428 
Q 3081 428 3442 575 
Q 3803 722 4122 1019 
L 4122 359 
Q 3791 134 3420 21 
Q 3050 -91 2638 -91 
Q 1578 -91 968 557 
Q 359 1206 359 2328 
Q 359 3453 968 4101 
Q 1578 4750 2638 4750 
Q 3056 4750 3426 4639 
Q 3797 4528 4122 4306 
z
" transform="scale(0.015625)"/>
       <path id="DejaVuSans-61" d="M 2194 1759 
Q 1497 1759 1228 1600 
Q 959 1441 959 1056 
Q 959 750 1161 570 
Q 1363 391 1709 391 
Q 2188 391 2477 730 
Q 2766 1069 2766 1631 
L 2766 1759 
L 2194 1759 
z
M 3341 1997 
L 3341 0 
L 2766 0 
L 2766 531 
Q 2569 213 2275 61 
Q 1981 -91 1556 -91 
Q 1019 -91 701 211 
Q 384 513 384 1019 
Q 384 1609 779 1909 
Q 1175 2209 1959 2209 
L 2766 2209 
L 2766 2266 
Q 2766 2663 2505 2880 
Q 2244 3097 1772 3097 
Q 1472 3097 1187 3025 
Q 903 2953 641 2809 
L 641 3341 
Q 956 3463 1253 3523 
Q 1550 3584 1831 3584 
Q 2591 3584 2966 3190 
Q 3341 2797 3341 1997 
z
" transform="scale(0.015625)"/>
       <path id="DejaVuSans-6c" d="M 603 4863 
L 1178 4863 
L 1178 0 
L 603 0 
L 603 4863 
z
" transform="scale(0.015625)"/>
       <path id="DejaVuSans-20" transform="scale(0.015625)"/>
       <path id="DejaVuSans-69" d="M 603 3500 
L 1178 3500 
L 1178 0 
L 603 0 
L 603 3500 
z
M 603 4863 
L 1178 4863 
L 1178 4134 
L 603 4134 
L 603 4863 
z
" transform="scale(0.015625)"/>
       <path id="DejaVuSans-6e" d="M 3513 2113 
L 3513 0 
L 2938 0 
L 2938 2094 
Q 2938 2591 2744 2837 
Q 2550 3084 2163 3084 
Q 1697 3084 1428 2787 
Q 1159 2491 1159 1978 
L 1159 0 
L 581 0 
L 581 3500 
L 1159 3500 
L 1159 2956 
Q 1366 3272 1645 3428 
Q 1925 3584 2291 3584 
Q 2894 3584 3203 3211 
Q 3513 2838 3513 2113 
z
" transform="scale(0.015625)"/>
       <path id="DejaVuSans-64" d="M 2906 2969 
L 2906 4863 
L 3481 4863 
L 3481 0 
L 2906 0 
L 2906 525 
Q 2725 213 2448 61 
Q 2172 -91 1784 -91 
Q 1150 -91 751 415 
Q 353 922 353 1747 
Q 353 2572 751 3078 
Q 1150 3584 1784 3584 
Q 2172 3584 2448 3432 
Q 2725 3281 2906 2969 
z
M 947 1747 
Q 947 1113 1208 752 
Q 1469 391 1925 391 
Q 2381 391 2643 752 
Q 2906 1113 2906 1747 
Q 2906 2381 2643 2742 
Q 2381 3103 1925 3103 
Q 1469 3103 1208 2742 
Q 947 2381 947 1747 
z
" transform="scale(0.015625)"/>
       <path id="DejaVuSans-65" d="M 3597 1894 
L 3597 1613 
L 953 1613 
Q 991 1019 1311 708 
Q 1631 397 2203 397 
Q 2534 397 2845 478 
Q 3156 559 3463 722 
L 3463 178 
Q 3153 47 2828 -22 
Q 2503 -91 2169 -91 
Q 1331 -91 842 396 
Q 353 884 353 1716 
Q 353 2575 817 3079 
Q 1281 3584 2069 3584 
Q 2775 3584 3186 3129 
Q 3597 2675 3597 1894 
z
M 3022 2063 
Q 3016 2534 2758 2815 
Q 2500 3097 2075 3097 
Q 1594 3097 1305 2825 
Q 1016 2553 972 2059 
L 3022 2063 
z
" transform="scale(0.015625)"/>
       <path id="DejaVuSans-78" d="M 3513 3500 
L 2247 1797 
L 3578 0 
L 2900 0 
L 1881 1375 
L 863 0 
L 184 0 
L 1544 1831 
L 300 3500 
L 978 3500 
L 1906 2253 
L 2834 3500 
L 3513 3500 
z
" transform="scale(0.015625)"/>
      </defs>
      <use xlink:href="#DejaVuSans-43"/>
      <use xlink:href="#DejaVuSans-61" transform="translate(69.824219 0)"/>
      <use xlink:href="#DejaVuSans-6c" transform="translate(131.103516 0)"/>
      <use xlink:href="#DejaVuSans-6c" transform="translate(158.886719 0)"/>
      <use xlink:href="#DejaVuSans-20" transform="translate(186.669922 0)"/>
      <use xlink:href="#DejaVuSans-69" transform="translate(218.457031 0)"/>
      <use xlink:href="#DejaVuSans-6e" transform="translate(246.240234 0)"/>
      <use xlink:href="#DejaVuSans-64" transform="translate(309.619141 0)"/>
      <use xlink:href="#DejaVuSans-65" transform="translate(373.095703 0)"/>
      <use xlink:href="#DejaVuSans-78" transform="translate(432.869141 0)"/>
     </g>
    </g>
   </g>
   <g id="matplotlib.axis_2">
    <g id="ytick_1">
     <g id="line2d_13">
      <path d="M 50.96 622.704269 
L 3589.2 622.704269 
" clip-path="url(#pb91bdbb409)" style="fill: none; stroke: #b0b0b0; stroke-width: 0.8; stroke-linecap: square"/>
     </g>
     <g id="line2d_14">
      <defs>
       <path id="m6cfa8d5067" d="M 0 0 
L -3.5 0 
" style="stroke: #000000; stroke-width: 0.8"/>
      </defs>
      <g>
       <use xlink:href="#m6cfa8d5067" x="50.96" y="622.704269" style="stroke: #000000; stroke-width: 0.8"/>
      </g>
     </g>
     <g id="text_8">
      <!-- 80 -->
      <g transform="translate(31.235 626.503488) scale(0.1 -0.1)">
       <use xlink:href="#DejaVuSans-38"/>
       <use xlink:href="#DejaVuSans-30" transform="translate(63.623047 0)"/>
      </g>
     </g>
    </g>
    <g id="ytick_2">
     <g id="line2d_15">
      <path d="M 50.96 494.016522 
L 3589.2 494.016522 
" clip-path="url(#pb91bdbb409)" style="fill: none; stroke: #b0b0b0; stroke-width: 0.8; stroke-linecap: square"/>
     </g>
     <g id="line2d_16">
      <g>
       <use xlink:href="#m6cfa8d5067" x="50.96" y="494.016522" style="stroke: #000000; stroke-width: 0.8"/>
      </g>
     </g>
     <g id="text_9">
      <!-- 90 -->
      <g transform="translate(31.235 497.81574) scale(0.1 -0.1)">
       <defs>
        <path id="DejaVuSans-39" d="M 703 97 
L 703 672 
Q 941 559 1184 500 
Q 1428 441 1663 441 
Q 2288 441 2617 861 
Q 2947 1281 2994 2138 
Q 2813 1869 2534 1725 
Q 2256 1581 1919 1581 
Q 1219 1581 811 2004 
Q 403 2428 403 3163 
Q 403 3881 828 4315 
Q 1253 4750 1959 4750 
Q 2769 4750 3195 4129 
Q 3622 3509 3622 2328 
Q 3622 1225 3098 567 
Q 2575 -91 1691 -91 
Q 1453 -91 1209 -44 
Q 966 3 703 97 
z
M 1959 2075 
Q 2384 2075 2632 2365 
Q 2881 2656 2881 3163 
Q 2881 3666 2632 3958 
Q 2384 4250 1959 4250 
Q 1534 4250 1286 3958 
Q 1038 3666 1038 3163 
Q 1038 2656 1286 2365 
Q 1534 2075 1959 2075 
z
" transform="scale(0.015625)"/>
       </defs>
       <use xlink:href="#DejaVuSans-39"/>
       <use xlink:href="#DejaVuSans-30" transform="translate(63.623047 0)"/>
      </g>
     </g>
    </g>
    <g id="ytick_3">
     <g id="line2d_17">
      <path d="M 50.96 365.328775 
L 3589.2 365.328775 
" clip-path="url(#pb91bdbb409)" style="fill: none; stroke: #b0b0b0; stroke-width: 0.8; stroke-linecap: square"/>
     </g>
     <g id="line2d_18">
      <g>
       <use xlink:href="#m6cfa8d5067" x="50.96" y="365.328775" style="stroke: #000000; stroke-width: 0.8"/>
      </g>
     </g>
     <g id="text_10">
      <!-- 100 -->
      <g transform="translate(24.8725 369.127993) scale(0.1 -0.1)">
       <use xlink:href="#DejaVuSans-31"/>
       <use xlink:href="#DejaVuSans-30" transform="translate(63.623047 0)"/>
       <use xlink:href="#DejaVuSans-30" transform="translate(127.246094 0)"/>
      </g>
     </g>
    </g>
    <g id="ytick_4">
     <g id="line2d_19">
      <path d="M 50.96 236.641028 
L 3589.2 236.641028 
" clip-path="url(#pb91bdbb409)" style="fill: none; stroke: #b0b0b0; stroke-width: 0.8; stroke-linecap: square"/>
     </g>
     <g id="line2d_20">
      <g>
       <use xlink:href="#m6cfa8d5067" x="50.96" y="236.641028" style="stroke: #000000; stroke-width: 0.8"/>
      </g>
     </g>
     <g id="text_11">
      <!-- 110 -->
      <g transform="translate(24.8725 240.440246) scale(0.1 -0.1)">
       <use xlink:href="#DejaVuSans-31"/>
       <use xlink:href="#DejaVuSans-31" transform="translate(63.623047 0)"/>
       <use xlink:href="#DejaVuSans-30" transform="translate(127.246094 0)"/>
      </g>
     </g>
    </g>
    <g id="ytick_5">
     <g id="line2d_21">
      <path d="M 50.96 107.953281 
L 3589.2 107.953281 
" clip-path="url(#pb91bdbb409)" style="fill: none; stroke: #b0b0b0; stroke-width: 0.8; stroke-linecap: square"/>
     </g>
     <g id="line2d_22">
      <g>
       <use xlink:href="#m6cfa8d5067" x="50.96" y="107.953281" style="stroke: #000000; stroke-width: 0.8"/>
      </g>
     </g>
     <g id="text_12">
      <!-- 120 -->
      <g transform="translate(24.8725 111.752499) scale(0.1 -0.1)">
       <use xlink:href="#DejaVuSans-31"/>
       <use xlink:href="#DejaVuSans-32" transform="translate(63.623047 0)"/>
       <use xlink:href="#DejaVuSans-30" transform="translate(127.246094 0)"/>
      </g>
     </g>
    </g>
    <g id="text_13">
     <!-- Latency -->
     <g transform="translate(18.792812 372.224063) rotate(-90) scale(0.1 -0.1)">
      <defs>
       <path id="DejaVuSans-4c" d="M 628 4666 
L 1259 4666 
L 1259 531 
L 3531 531 
L 3531 0 
L 628 0 
L 628 4666 
z
" transform="scale(0.015625)"/>
       <path id="DejaVuSans-74" d="M 1172 4494 
L 1172 3500 
L 2356 3500 
L 2356 3053 
L 1172 3053 
L 1172 1153 
Q 1172 725 1289 603 
Q 1406 481 1766 481 
L 2356 481 
L 2356 0 
L 1766 0 
Q 1100 0 847 248 
Q 594 497 594 1153 
L 594 3053 
L 172 3053 
L 172 3500 
L 594 3500 
L 594 4494 
L 1172 4494 
z
" transform="scale(0.015625)"/>
       <path id="DejaVuSans-63" d="M 3122 3366 
L 3122 2828 
Q 2878 2963 2633 3030 
Q 2388 3097 2138 3097 
Q 1578 3097 1268 2742 
Q 959 2388 959 1747 
Q 959 1106 1268 751 
Q 1578 397 2138 397 
Q 2388 397 2633 464 
Q 2878 531 3122 666 
L 3122 134 
Q 2881 22 2623 -34 
Q 2366 -91 2075 -91 
Q 1284 -91 818 406 
Q 353 903 353 1747 
Q 353 2603 823 3093 
Q 1294 3584 2113 3584 
Q 2378 3584 2631 3529 
Q 2884 3475 3122 3366 
z
" transform="scale(0.015625)"/>
       <path id="DejaVuSans-79" d="M 2059 -325 
Q 1816 -950 1584 -1140 
Q 1353 -1331 966 -1331 
L 506 -1331 
L 506 -850 
L 844 -850 
Q 1081 -850 1212 -737 
Q 1344 -625 1503 -206 
L 1606 56 
L 191 3500 
L 800 3500 
L 1894 763 
L 2988 3500 
L 3597 3500 
L 2059 -325 
z
" transform="scale(0.015625)"/>
      </defs>
      <use xlink:href="#DejaVuSans-4c"/>
      <use xlink:href="#DejaVuSans-61" transform="translate(55.712891 0)"/>
      <use xlink:href="#DejaVuSans-74" transform="translate(116.992188 0)"/>
      <use xlink:href="#DejaVuSans-65" transform="translate(156.201172 0)"/>
      <use xlink:href="#DejaVuSans-6e" transform="translate(217.724609 0)"/>
      <use xlink:href="#DejaVuSans-63" transform="translate(281.103516 0)"/>
      <use xlink:href="#DejaVuSans-79" transform="translate(336.083984 0)"/>
     </g>
    </g>
   </g>
   <g id="line2d_23">
    <path d="M 211.789091 313.853676 
L 215.008893 107.953281 
L 218.228694 609.835494 
L 224.668297 609.835494 
L 227.888099 584.097945 
L 231.107901 596.966719 
L 234.327702 223.772253 
L 237.547504 596.966719 
L 240.767305 378.197549 
L 247.206909 635.573043 
L 250.42671 198.034704 
L 253.646512 622.704269 
L 256.866314 442.541423 
L 260.086115 635.573043 
L 263.305917 416.803874 
L 266.525718 584.097945 
L 269.74552 442.541423 
L 276.185123 648.441818 
L 279.404925 198.034704 
L 282.624727 622.704269 
L 285.844528 365.328775 
L 289.06433 56.478182 
L 292.284131 584.097945 
L 295.503933 288.116126 
L 298.723735 622.704269 
L 301.943536 584.097945 
L 305.163338 622.704269 
L 308.38314 146.559605 
L 311.602941 635.573043 
L 314.822743 455.410198 
L 318.042544 622.704269 
L 321.262346 558.360395 
L 324.482148 236.641028 
L 327.701949 609.835494 
L 330.921751 468.278972 
L 337.361354 609.835494 
L 340.581156 584.097945 
L 343.800957 622.704269 
L 350.240561 571.22917 
L 353.460362 249.509802 
L 356.680164 622.704269 
L 359.899965 416.803874 
L 363.119767 56.478182 
L 366.339569 584.097945 
L 369.55937 198.034704 
L 372.779172 609.835494 
L 375.998974 481.147747 
L 379.218775 571.22917 
L 382.438577 494.016522 
L 385.658378 622.704269 
L 388.87818 494.016522 
L 392.097982 56.478182 
L 395.317783 622.704269 
L 398.537585 352.46 
L 404.977188 391.066324 
L 411.416791 506.885296 
L 414.636593 236.641028 
L 417.856395 635.573043 
L 421.076196 596.966719 
L 424.295998 609.835494 
L 427.515799 210.903478 
L 430.735601 596.966719 
L 433.955403 532.622846 
L 440.395006 571.22917 
L 443.614808 378.197549 
L 446.834609 635.573043 
L 450.054411 532.622846 
L 453.274212 146.559605 
L 456.494014 596.966719 
L 462.933617 596.966719 
L 466.153419 120.822055 
L 469.37322 584.097945 
L 472.593022 300.984901 
L 475.812824 609.835494 
L 479.032625 506.885296 
L 482.252427 210.903478 
L 485.472229 584.097945 
L 488.69203 378.197549 
L 495.131633 494.016522 
L 498.351435 648.441818 
L 501.571237 622.704269 
L 504.791038 635.573043 
L 508.01084 545.491621 
L 511.230642 159.428379 
L 514.450443 635.573043 
L 517.670245 403.935099 
L 524.109848 596.966719 
L 527.32965 198.034704 
L 530.549451 609.835494 
L 533.769253 429.672648 
L 536.989055 635.573043 
L 540.208856 609.835494 
L 543.428658 609.835494 
L 546.648459 403.935099 
L 553.088063 622.704269 
L 556.307864 172.297154 
L 559.527666 609.835494 
L 562.747467 172.297154 
L 588.50588 198.034704 
L 591.725682 648.441818 
L 594.945484 609.835494 
L 598.165285 584.097945 
L 604.604889 609.835494 
L 607.82469 596.966719 
L 611.044492 635.573043 
L 614.264293 648.441818 
L 617.484095 506.885296 
L 620.703897 584.097945 
L 623.923698 635.573043 
L 627.1435 622.704269 
L 630.363301 648.441818 
L 633.583103 622.704269 
L 636.802905 609.835494 
L 640.022706 648.441818 
L 643.242508 648.441818 
L 646.46231 635.573043 
L 649.682111 648.441818 
L 652.901913 519.754071 
L 656.121714 648.441818 
L 659.341516 648.441818 
L 662.561318 622.704269 
L 665.781119 609.835494 
L 672.220723 635.573043 
L 675.440524 596.966719 
L 681.880127 609.835494 
L 685.099929 622.704269 
L 688.319731 571.22917 
L 691.539532 635.573043 
L 694.759334 609.835494 
L 697.979135 519.754071 
L 701.198937 609.835494 
L 704.418739 635.573043 
L 707.63854 635.573043 
L 710.858342 571.22917 
L 714.078144 609.835494 
L 720.517747 584.097945 
L 723.737548 558.360395 
L 726.95735 481.147747 
L 730.177152 442.541423 
L 733.396953 545.491621 
L 736.616755 198.034704 
L 739.836557 609.835494 
L 743.056358 558.360395 
L 746.27616 584.097945 
L 749.495961 635.573043 
L 752.715763 648.441818 
L 755.935565 648.441818 
L 759.155366 622.704269 
L 762.375168 635.573043 
L 765.59497 545.491621 
L 768.814771 648.441818 
L 775.254374 648.441818 
L 778.474176 571.22917 
L 781.693978 558.360395 
L 784.913779 635.573043 
L 788.133581 571.22917 
L 791.353382 635.573043 
L 797.792986 609.835494 
L 801.012787 545.491621 
L 804.232589 648.441818 
L 807.452391 635.573043 
L 810.672192 609.835494 
L 813.891994 596.966719 
L 817.111795 609.835494 
L 820.331597 532.622846 
L 823.551399 622.704269 
L 826.7712 622.704269 
L 829.991002 648.441818 
L 842.870208 648.441818 
L 846.09001 635.573043 
L 849.309812 648.441818 
L 852.529613 635.573043 
L 855.749415 609.835494 
L 858.969216 648.441818 
L 862.189018 609.835494 
L 865.40882 519.754071 
L 868.628621 648.441818 
L 871.848423 622.704269 
L 881.507828 648.441818 
L 884.727629 596.966719 
L 891.167233 648.441818 
L 894.387034 648.441818 
L 897.606836 622.704269 
L 900.826638 635.573043 
L 904.046439 622.704269 
L 907.266241 635.573043 
L 910.486042 609.835494 
L 913.705844 609.835494 
L 916.925646 622.704269 
L 923.365249 596.966719 
L 926.585051 596.966719 
L 929.804852 635.573043 
L 933.024654 494.016522 
L 936.244455 648.441818 
L 939.464257 558.360395 
L 942.684059 622.704269 
L 945.90386 609.835494 
L 949.123662 609.835494 
L 952.343463 584.097945 
L 955.563265 648.441818 
L 958.783067 596.966719 
L 962.002868 609.835494 
L 965.22267 532.622846 
L 968.442472 558.360395 
L 971.662273 609.835494 
L 974.882075 596.966719 
L 978.101876 622.704269 
L 981.321678 558.360395 
L 984.54148 545.491621 
L 987.761281 622.704269 
L 990.981083 391.066324 
L 994.200885 648.441818 
L 997.420686 506.885296 
L 1000.640488 545.491621 
L 1003.860289 596.966719 
L 1007.080091 494.016522 
L 1010.299893 455.410198 
L 1013.519694 635.573043 
L 1016.739496 558.360395 
L 1019.959297 506.885296 
L 1023.179099 609.835494 
L 1026.398901 571.22917 
L 1029.618702 481.147747 
L 1032.838504 571.22917 
L 1036.058306 584.097945 
L 1039.278107 532.622846 
L 1042.497909 558.360395 
L 1045.71771 532.622846 
L 1055.377115 571.22917 
L 1058.596917 532.622846 
L 1061.816719 622.704269 
L 1065.03652 584.097945 
L 1068.256322 558.360395 
L 1071.476123 584.097945 
L 1074.695925 558.360395 
L 1081.135528 609.835494 
L 1084.35533 622.704269 
L 1087.575131 584.097945 
L 1090.794933 455.410198 
L 1094.014735 596.966719 
L 1097.234536 558.360395 
L 1100.454338 571.22917 
L 1103.67414 609.835494 
L 1106.893941 571.22917 
L 1110.113743 378.197549 
L 1113.333544 648.441818 
L 1116.553346 545.491621 
L 1119.773148 596.966719 
L 1122.992949 532.622846 
L 1126.212751 596.966719 
L 1129.432553 584.097945 
L 1135.872156 609.835494 
L 1139.091957 494.016522 
L 1142.311759 558.360395 
L 1145.531561 532.622846 
L 1151.971164 532.622846 
L 1155.190966 635.573043 
L 1158.410767 622.704269 
L 1161.630569 596.966719 
L 1164.85037 596.966719 
L 1168.070172 609.835494 
L 1171.289974 609.835494 
L 1174.509775 596.966719 
L 1177.729577 56.478182 
L 1180.949378 429.672648 
L 1184.16918 609.835494 
L 1187.388982 584.097945 
L 1190.608783 571.22917 
L 1193.828585 596.966719 
L 1200.268188 596.966719 
L 1203.48799 584.097945 
L 1206.707791 532.622846 
L 1209.927593 558.360395 
L 1213.147395 622.704269 
L 1216.367196 622.704269 
L 1219.586998 584.097945 
L 1226.026601 609.835494 
L 1229.246403 262.378577 
L 1232.466204 558.360395 
L 1235.686006 545.491621 
L 1238.905808 468.278972 
L 1242.125609 596.966719 
L 1245.345411 558.360395 
L 1248.565212 558.360395 
L 1251.785014 635.573043 
L 1255.004816 596.966719 
L 1258.224617 584.097945 
L 1261.444419 648.441818 
L 1264.664221 596.966719 
L 1267.884022 648.441818 
L 1271.103824 622.704269 
L 1274.323625 584.097945 
L 1277.543427 532.622846 
L 1280.763229 635.573043 
L 1283.98303 596.966719 
L 1287.202832 584.097945 
L 1290.422634 596.966719 
L 1296.862237 596.966719 
L 1300.082038 622.704269 
L 1303.30184 558.360395 
L 1306.521642 609.835494 
L 1309.741443 622.704269 
L 1312.961245 584.097945 
L 1316.181047 635.573043 
L 1319.400848 622.704269 
L 1322.62065 584.097945 
L 1325.840451 596.966719 
L 1329.060253 558.360395 
L 1332.280055 596.966719 
L 1335.499856 571.22917 
L 1338.719658 622.704269 
L 1341.939459 596.966719 
L 1345.159261 596.966719 
L 1348.379063 622.704269 
L 1351.598864 622.704269 
L 1354.818666 609.835494 
L 1358.038468 635.573043 
L 1361.258269 596.966719 
L 1364.478071 596.966719 
L 1367.697872 648.441818 
L 1370.917674 609.835494 
L 1374.137476 622.704269 
L 1377.357277 622.704269 
L 1380.577079 635.573043 
L 1383.796881 635.573043 
L 1387.016682 596.966719 
L 1390.236484 494.016522 
L 1393.456285 584.097945 
L 1396.676087 622.704269 
L 1399.895889 596.966719 
L 1403.11569 635.573043 
L 1406.335492 558.360395 
L 1409.555293 596.966719 
L 1412.775095 622.704269 
L 1415.994897 635.573043 
L 1419.214698 622.704269 
L 1422.4345 558.360395 
L 1425.654302 622.704269 
L 1428.874103 558.360395 
L 1432.093905 635.573043 
L 1435.313706 571.22917 
L 1438.533508 558.360395 
L 1441.75331 648.441818 
L 1448.192913 545.491621 
L 1451.412715 635.573043 
L 1454.632516 635.573043 
L 1457.852318 584.097945 
L 1461.072119 635.573043 
L 1464.291921 609.835494 
L 1467.511723 635.573043 
L 1470.731524 596.966719 
L 1473.951326 635.573043 
L 1477.171127 648.441818 
L 1483.610731 648.441818 
L 1486.830532 596.966719 
L 1490.050334 635.573043 
L 1493.270136 532.622846 
L 1496.489937 635.573043 
L 1499.709739 571.22917 
L 1502.92954 609.835494 
L 1506.149342 584.097945 
L 1509.369144 622.704269 
L 1512.588945 635.573043 
L 1515.808747 635.573043 
L 1522.24835 609.835494 
L 1525.468152 648.441818 
L 1528.687953 648.441818 
L 1531.907755 558.360395 
L 1535.127557 558.360395 
L 1538.347358 622.704269 
L 1541.56716 584.097945 
L 1548.006763 609.835494 
L 1551.226565 596.966719 
L 1554.446366 571.22917 
L 1557.666168 596.966719 
L 1560.88597 545.491621 
L 1564.105771 571.22917 
L 1567.325573 622.704269 
L 1570.545374 622.704269 
L 1573.765176 635.573043 
L 1576.984978 584.097945 
L 1580.204779 584.097945 
L 1583.424581 609.835494 
L 1586.644383 596.966719 
L 1589.864184 545.491621 
L 1593.083986 609.835494 
L 1596.303787 596.966719 
L 1599.523589 596.966719 
L 1602.743391 584.097945 
L 1605.963192 635.573043 
L 1609.182994 571.22917 
L 1612.402796 571.22917 
L 1615.622597 635.573043 
L 1618.842399 519.754071 
L 1622.0622 455.410198 
L 1625.282002 584.097945 
L 1628.501804 622.704269 
L 1631.721605 596.966719 
L 1634.941407 519.754071 
L 1638.161208 468.278972 
L 1641.38101 609.835494 
L 1644.600812 622.704269 
L 1647.820613 596.966719 
L 1651.040415 622.704269 
L 1657.480018 648.441818 
L 1660.69982 596.966719 
L 1663.919621 635.573043 
L 1667.139423 635.573043 
L 1670.359225 378.197549 
L 1673.579026 622.704269 
L 1676.798828 571.22917 
L 1680.01863 584.097945 
L 1683.238431 648.441818 
L 1686.458233 429.672648 
L 1689.678034 635.573043 
L 1692.897836 584.097945 
L 1696.117638 558.360395 
L 1699.337439 584.097945 
L 1702.557241 635.573043 
L 1705.777042 584.097945 
L 1708.996844 622.704269 
L 1712.216646 584.097945 
L 1715.436447 532.622846 
L 1718.656249 571.22917 
L 1721.876051 622.704269 
L 1725.095852 609.835494 
L 1728.315654 584.097945 
L 1731.535455 571.22917 
L 1734.755257 584.097945 
L 1737.975059 648.441818 
L 1741.19486 648.441818 
L 1744.414662 609.835494 
L 1747.634464 584.097945 
L 1754.074067 635.573043 
L 1757.293868 635.573043 
L 1760.51367 584.097945 
L 1763.733472 571.22917 
L 1773.392877 429.672648 
L 1776.612678 172.297154 
L 1779.83248 648.441818 
L 1783.052281 468.278972 
L 1786.272083 635.573043 
L 1789.491885 584.097945 
L 1792.711686 622.704269 
L 1795.931488 481.147747 
L 1799.151289 506.885296 
L 1802.371091 558.360395 
L 1805.590893 532.622846 
L 1808.810694 648.441818 
L 1812.030496 609.835494 
L 1815.250298 622.704269 
L 1818.470099 609.835494 
L 1821.689901 622.704269 
L 1824.909702 648.441818 
L 1831.349306 622.704269 
L 1837.788909 494.016522 
L 1841.008711 622.704269 
L 1844.228512 648.441818 
L 1847.448314 609.835494 
L 1850.668115 596.966719 
L 1853.887917 635.573043 
L 1857.107719 596.966719 
L 1860.32752 648.441818 
L 1863.547322 609.835494 
L 1866.767123 648.441818 
L 1869.986925 635.573043 
L 1873.206727 558.360395 
L 1876.426528 622.704269 
L 1882.866132 584.097945 
L 1886.085933 596.966719 
L 1889.305735 584.097945 
L 1892.525536 635.573043 
L 1895.745338 571.22917 
L 1898.96514 648.441818 
L 1908.624545 288.116126 
L 1911.844346 249.509802 
L 1915.064148 558.360395 
L 1918.283949 429.672648 
L 1921.503751 596.966719 
L 1924.723553 635.573043 
L 1927.943354 558.360395 
L 1931.163156 648.441818 
L 1934.382958 609.835494 
L 1937.602759 558.360395 
L 1940.822561 455.410198 
L 1944.042362 532.622846 
L 1947.262164 532.622846 
L 1950.481966 519.754071 
L 1953.701767 622.704269 
L 1956.921569 635.573043 
L 1963.361172 609.835494 
L 1966.580974 494.016522 
L 1969.800775 455.410198 
L 1973.020577 558.360395 
L 1976.240379 571.22917 
L 1979.46018 596.966719 
L 1982.679982 635.573043 
L 1985.899783 635.573043 
L 1989.119585 609.835494 
L 1992.339387 648.441818 
L 2005.218593 120.822055 
L 2008.438395 609.835494 
L 2018.0978 146.559605 
L 2021.317601 558.360395 
L 2024.537403 275.247352 
L 2027.757204 519.754071 
L 2030.977006 532.622846 
L 2034.196808 532.622846 
L 2043.856213 95.084506 
L 2047.076014 596.966719 
L 2053.515617 584.097945 
L 2056.735419 635.573043 
L 2059.955221 596.966719 
L 2063.175022 622.704269 
L 2066.394824 622.704269 
L 2069.614626 584.097945 
L 2072.834427 442.541423 
L 2076.054229 622.704269 
L 2079.27403 584.097945 
L 2082.493832 596.966719 
L 2085.713634 365.328775 
L 2088.933435 558.360395 
L 2092.153237 622.704269 
L 2095.373038 584.097945 
L 2098.59284 584.097945 
L 2105.032443 635.573043 
L 2108.252245 622.704269 
L 2111.472047 429.672648 
L 2114.691848 519.754071 
L 2117.91165 519.754071 
L 2121.131451 133.69083 
L 2124.351253 622.704269 
L 2130.790856 416.803874 
L 2134.010658 635.573043 
L 2137.23046 159.428379 
L 2140.450261 223.772253 
L 2143.670063 391.066324 
L 2153.329468 210.903478 
L 2156.549269 120.822055 
L 2159.769071 648.441818 
L 2162.988873 481.147747 
L 2166.208674 352.46 
L 2172.648277 532.622846 
L 2175.868079 558.360395 
L 2179.087881 622.704269 
L 2182.307682 584.097945 
L 2185.527484 648.441818 
L 2188.747285 584.097945 
L 2191.967087 635.573043 
L 2195.186889 494.016522 
L 2198.40669 494.016522 
L 2201.626492 622.704269 
L 2204.846294 481.147747 
L 2208.066095 494.016522 
L 2211.285897 532.622846 
L 2214.505698 596.966719 
L 2217.7255 571.22917 
L 2220.945302 494.016522 
L 2224.165103 596.966719 
L 2227.384905 635.573043 
L 2230.604707 596.966719 
L 2233.824508 596.966719 
L 2237.04431 519.754071 
L 2240.264111 609.835494 
L 2243.483913 648.441818 
L 2246.703715 532.622846 
L 2249.923516 571.22917 
L 2253.143318 635.573043 
L 2256.363119 635.573043 
L 2259.582921 622.704269 
L 2262.802723 635.573043 
L 2266.022524 532.622846 
L 2269.242326 622.704269 
L 2272.462128 571.22917 
L 2275.681929 584.097945 
L 2282.121532 532.622846 
L 2285.341334 494.016522 
L 2288.561136 506.885296 
L 2291.780937 365.328775 
L 2295.000739 506.885296 
L 2298.220541 571.22917 
L 2301.440342 622.704269 
L 2304.660144 609.835494 
L 2307.879945 455.410198 
L 2311.099747 584.097945 
L 2314.319549 596.966719 
L 2317.53935 481.147747 
L 2320.759152 571.22917 
L 2323.978953 558.360395 
L 2330.418557 558.360395 
L 2333.638358 545.491621 
L 2336.85816 545.491621 
L 2340.077962 494.016522 
L 2343.297763 558.360395 
L 2346.517565 609.835494 
L 2349.737366 609.835494 
L 2352.957168 622.704269 
L 2356.17697 532.622846 
L 2359.396771 545.491621 
L 2365.836375 622.704269 
L 2369.056176 571.22917 
L 2372.275978 558.360395 
L 2375.495779 519.754071 
L 2378.715581 635.573043 
L 2381.935383 609.835494 
L 2385.155184 571.22917 
L 2388.374986 622.704269 
L 2391.594788 558.360395 
L 2394.814589 622.704269 
L 2398.034391 622.704269 
L 2404.473994 545.491621 
L 2407.693796 584.097945 
L 2410.913597 609.835494 
L 2414.133399 622.704269 
L 2417.3532 596.966719 
L 2420.573002 584.097945 
L 2423.792804 545.491621 
L 2427.012605 622.704269 
L 2430.232407 596.966719 
L 2433.452209 622.704269 
L 2436.67201 571.22917 
L 2439.891812 571.22917 
L 2443.111613 596.966719 
L 2446.331415 635.573043 
L 2449.551217 596.966719 
L 2455.99082 622.704269 
L 2459.210622 558.360395 
L 2462.430423 609.835494 
L 2465.650225 519.754071 
L 2468.870026 442.541423 
L 2472.089828 571.22917 
L 2475.30963 506.885296 
L 2478.529431 494.016522 
L 2481.749233 609.835494 
L 2484.969034 648.441818 
L 2488.188836 378.197549 
L 2491.408638 545.491621 
L 2494.628439 506.885296 
L 2497.848241 532.622846 
L 2501.068043 596.966719 
L 2504.287844 506.885296 
L 2507.507646 558.360395 
L 2510.727447 622.704269 
L 2513.947249 558.360395 
L 2517.167051 223.772253 
L 2520.386852 494.016522 
L 2523.606654 378.197549 
L 2530.046257 429.672648 
L 2533.266059 506.885296 
L 2536.48586 635.573043 
L 2539.705662 596.966719 
L 2542.925464 609.835494 
L 2546.145265 545.491621 
L 2549.365067 545.491621 
L 2552.584869 635.573043 
L 2555.80467 558.360395 
L 2559.024472 584.097945 
L 2562.244273 339.591225 
L 2568.683877 571.22917 
L 2571.903678 545.491621 
L 2575.12348 571.22917 
L 2578.343281 506.885296 
L 2581.563083 584.097945 
L 2584.782885 506.885296 
L 2588.002686 571.22917 
L 2591.222488 558.360395 
L 2594.44229 622.704269 
L 2597.662091 558.360395 
L 2600.881893 635.573043 
L 2604.101694 442.541423 
L 2607.321496 571.22917 
L 2610.541298 532.622846 
L 2613.761099 622.704269 
L 2616.980901 635.573043 
L 2620.200703 635.573043 
L 2623.420504 545.491621 
L 2626.640306 519.754071 
L 2629.860107 519.754071 
L 2633.079909 545.491621 
L 2636.299711 622.704269 
L 2639.519512 571.22917 
L 2642.739314 571.22917 
L 2645.959115 506.885296 
L 2649.178917 571.22917 
L 2652.398719 506.885296 
L 2655.61852 506.885296 
L 2658.838322 545.491621 
L 2662.058124 622.704269 
L 2665.277925 596.966719 
L 2668.497727 584.097945 
L 2671.717528 429.672648 
L 2674.93733 571.22917 
L 2678.157132 519.754071 
L 2681.376933 494.016522 
L 2684.596735 622.704269 
L 2687.816537 519.754071 
L 2691.036338 622.704269 
L 2694.25614 532.622846 
L 2697.475941 545.491621 
L 2700.695743 609.835494 
L 2703.915545 622.704269 
L 2707.135346 558.360395 
L 2710.355148 622.704269 
L 2713.574949 596.966719 
L 2720.014553 622.704269 
L 2723.234354 609.835494 
L 2726.454156 532.622846 
L 2729.673958 584.097945 
L 2732.893759 609.835494 
L 2736.113561 622.704269 
L 2739.333362 584.097945 
L 2742.553164 622.704269 
L 2745.772966 635.573043 
L 2755.432371 198.034704 
L 2758.652172 648.441818 
L 2771.531379 558.360395 
L 2774.75118 468.278972 
L 2781.190784 313.853676 
L 2784.410585 571.22917 
L 2787.630387 532.622846 
L 2790.850188 584.097945 
L 2794.06999 596.966719 
L 2797.289792 635.573043 
L 2800.509593 558.360395 
L 2803.729395 506.885296 
L 2806.949196 545.491621 
L 2810.168998 635.573043 
L 2813.3888 596.966719 
L 2816.608601 609.835494 
L 2819.828403 596.966719 
L 2823.048205 468.278972 
L 2826.268006 481.147747 
L 2829.487808 622.704269 
L 2832.707609 545.491621 
L 2835.927411 609.835494 
L 2839.147213 622.704269 
L 2842.367014 558.360395 
L 2845.586816 481.147747 
L 2848.806618 519.754071 
L 2852.026419 545.491621 
L 2855.246221 648.441818 
L 2858.466022 442.541423 
L 2861.685824 545.491621 
L 2864.905626 506.885296 
L 2868.125427 584.097945 
L 2871.345229 635.573043 
L 2874.56503 558.360395 
L 2877.784832 609.835494 
L 2881.004634 584.097945 
L 2884.224435 584.097945 
L 2887.444237 506.885296 
L 2890.664039 442.541423 
L 2893.88384 622.704269 
L 2897.103642 584.097945 
L 2900.323443 532.622846 
L 2903.543245 571.22917 
L 2906.763047 532.622846 
L 2909.982848 455.410198 
L 2913.20265 571.22917 
L 2916.422452 635.573043 
L 2919.642253 558.360395 
L 2922.862055 519.754071 
L 2926.081856 609.835494 
L 2929.301658 506.885296 
L 2932.52146 262.378577 
L 2938.961063 622.704269 
L 2942.180865 519.754071 
L 2945.400666 596.966719 
L 2948.620468 596.966719 
L 2951.840269 558.360395 
L 2955.060071 584.097945 
L 2958.279873 391.066324 
L 2961.499674 622.704269 
L 2964.719476 596.966719 
L 2967.939277 494.016522 
L 2971.159079 506.885296 
L 2974.378881 442.541423 
L 2977.598682 558.360395 
L 2980.818484 596.966719 
L 2984.038286 468.278972 
L 2987.258087 429.672648 
L 2990.477889 584.097945 
L 2993.69769 391.066324 
L 2996.917492 494.016522 
L 3000.137294 648.441818 
L 3003.357095 519.754071 
L 3006.576897 545.491621 
L 3009.796699 532.622846 
L 3013.0165 494.016522 
L 3016.236302 545.491621 
L 3019.456103 545.491621 
L 3022.675905 468.278972 
L 3025.895707 481.147747 
L 3029.115508 95.084506 
L 3032.33531 352.46 
L 3041.994715 172.297154 
L 3048.434318 378.197549 
L 3051.65412 622.704269 
L 3054.873921 506.885296 
L 3058.093723 609.835494 
L 3061.313524 481.147747 
L 3064.533326 635.573043 
L 3067.753128 532.622846 
L 3070.972929 622.704269 
L 3074.192731 506.885296 
L 3077.412533 506.885296 
L 3080.632334 622.704269 
L 3083.852136 339.591225 
L 3087.071937 352.46 
L 3090.291739 532.622846 
L 3093.511541 545.491621 
L 3096.731342 622.704269 
L 3099.951144 609.835494 
L 3103.170945 558.360395 
L 3106.390747 596.966719 
L 3109.610549 622.704269 
L 3112.83035 468.278972 
L 3116.050152 609.835494 
L 3119.269954 494.016522 
L 3122.489755 558.360395 
L 3125.709557 571.22917 
L 3128.929358 571.22917 
L 3132.14916 494.016522 
L 3135.368962 622.704269 
L 3138.588763 596.966719 
L 3145.028367 622.704269 
L 3148.248168 584.097945 
L 3151.46797 571.22917 
L 3154.687771 584.097945 
L 3157.907573 494.016522 
L 3161.127375 558.360395 
L 3164.347176 571.22917 
L 3167.566978 596.966719 
L 3170.78678 545.491621 
L 3174.006581 545.491621 
L 3177.226383 236.641028 
L 3180.446184 442.541423 
L 3183.665986 468.278972 
L 3186.885788 622.704269 
L 3190.105589 545.491621 
L 3193.325391 545.491621 
L 3196.545192 622.704269 
L 3199.764994 506.885296 
L 3202.984796 609.835494 
L 3206.204597 506.885296 
L 3209.424399 468.278972 
L 3212.644201 558.360395 
L 3215.864002 558.360395 
L 3219.083804 519.754071 
L 3222.303605 635.573043 
L 3225.523407 635.573043 
L 3228.743209 648.441818 
L 3231.96301 506.885296 
L 3235.182812 584.097945 
L 3238.402614 442.541423 
L 3241.622415 622.704269 
L 3244.842217 519.754071 
L 3248.062018 622.704269 
L 3251.28182 584.097945 
L 3254.501622 622.704269 
L 3257.721423 506.885296 
L 3260.941225 622.704269 
L 3264.161026 635.573043 
L 3267.380828 506.885296 
L 3270.60063 429.672648 
L 3273.820431 532.622846 
L 3277.040233 494.016522 
L 3280.260035 622.704269 
L 3283.479836 596.966719 
L 3286.699638 609.835494 
L 3289.919439 455.410198 
L 3293.139241 635.573043 
L 3296.359043 635.573043 
L 3299.578844 506.885296 
L 3302.798646 365.328775 
L 3306.018448 532.622846 
L 3309.238249 494.016522 
L 3312.458051 532.622846 
L 3315.677852 519.754071 
L 3318.897654 596.966719 
L 3322.117456 519.754071 
L 3325.337257 545.491621 
L 3328.557059 596.966719 
L 3331.77686 596.966719 
L 3334.996662 584.097945 
L 3338.216464 506.885296 
L 3341.436265 622.704269 
L 3344.656067 596.966719 
L 3347.875869 609.835494 
L 3351.09567 609.835494 
L 3354.315472 532.622846 
L 3357.535273 648.441818 
L 3360.755075 584.097945 
L 3363.974877 558.360395 
L 3367.194678 622.704269 
L 3370.41448 609.835494 
L 3373.634282 571.22917 
L 3376.854083 558.360395 
L 3386.513488 172.297154 
L 3389.73329 249.509802 
L 3392.953091 584.097945 
L 3396.172893 352.46 
L 3399.392695 622.704269 
L 3402.612496 481.147747 
L 3405.832298 519.754071 
L 3409.052099 571.22917 
L 3428.370909 69.346957 
L 3428.370909 69.346957 
" clip-path="url(#pb91bdbb409)" style="fill: none; stroke: #3cb371; stroke-width: 1.5; stroke-linecap: square"/>
   </g>
   <g id="patch_3">
    <path d="M 50.96 678.04 
L 50.96 26.88 
" style="fill: none; stroke: #000000; stroke-width: 0.8; stroke-linejoin: miter; stroke-linecap: square"/>
   </g>
   <g id="patch_4">
    <path d="M 3589.2 678.04 
L 3589.2 26.88 
" style="fill: none; stroke: #000000; stroke-width: 0.8; stroke-linejoin: miter; stroke-linecap: square"/>
   </g>
   <g id="patch_5">
    <path d="M 50.96 678.04 
L 3589.2 678.04 
" style="fill: none; stroke: #000000; stroke-width: 0.8; stroke-linejoin: miter; stroke-linecap: square"/>
   </g>
   <g id="patch_6">
    <path d="M 50.96 26.88 
L 3589.2 26.88 
" style="fill: none; stroke: #000000; stroke-width: 0.8; stroke-linejoin: miter; stroke-linecap: square"/>
   </g>
   <g id="text_14">
    <!-- Latency for chat socket send calls (central 90%) -->
    <g transform="translate(1675.399375 20.88) scale(0.12 -0.12)">
     <defs>
      <path id="DejaVuSans-66" d="M 2375 4863 
L 2375 4384 
L 1825 4384 
Q 1516 4384 1395 4259 
Q 1275 4134 1275 3809 
L 1275 3500 
L 2222 3500 
L 2222 3053 
L 1275 3053 
L 1275 0 
L 697 0 
L 697 3053 
L 147 3053 
L 147 3500 
L 697 3500 
L 697 3744 
Q 697 4328 969 4595 
Q 1241 4863 1831 4863 
L 2375 4863 
z
" transform="scale(0.015625)"/>
      <path id="DejaVuSans-6f" d="M 1959 3097 
Q 1497 3097 1228 2736 
Q 959 2375 959 1747 
Q 959 1119 1226 758 
Q 1494 397 1959 397 
Q 2419 397 2687 759 
Q 2956 1122 2956 1747 
Q 2956 2369 2687 2733 
Q 2419 3097 1959 3097 
z
M 1959 3584 
Q 2709 3584 3137 3096 
Q 3566 2609 3566 1747 
Q 3566 888 3137 398 
Q 2709 -91 1959 -91 
Q 1206 -91 779 398 
Q 353 888 353 1747 
Q 353 2609 779 3096 
Q 1206 3584 1959 3584 
z
" transform="scale(0.015625)"/>
      <path id="DejaVuSans-72" d="M 2631 2963 
Q 2534 3019 2420 3045 
Q 2306 3072 2169 3072 
Q 1681 3072 1420 2755 
Q 1159 2438 1159 1844 
L 1159 0 
L 581 0 
L 581 3500 
L 1159 3500 
L 1159 2956 
Q 1341 3275 1631 3429 
Q 1922 3584 2338 3584 
Q 2397 3584 2469 3576 
Q 2541 3569 2628 3553 
L 2631 2963 
z
" transform="scale(0.015625)"/>
      <path id="DejaVuSans-68" d="M 3513 2113 
L 3513 0 
L 2938 0 
L 2938 2094 
Q 2938 2591 2744 2837 
Q 2550 3084 2163 3084 
Q 1697 3084 1428 2787 
Q 1159 2491 1159 1978 
L 1159 0 
L 581 0 
L 581 4863 
L 1159 4863 
L 1159 2956 
Q 1366 3272 1645 3428 
Q 1925 3584 2291 3584 
Q 2894 3584 3203 3211 
Q 3513 2838 3513 2113 
z
" transform="scale(0.015625)"/>
      <path id="DejaVuSans-73" d="M 2834 3397 
L 2834 2853 
Q 2591 2978 2328 3040 
Q 2066 3103 1784 3103 
Q 1356 3103 1142 2972 
Q 928 2841 928 2578 
Q 928 2378 1081 2264 
Q 1234 2150 1697 2047 
L 1894 2003 
Q 2506 1872 2764 1633 
Q 3022 1394 3022 966 
Q 3022 478 2636 193 
Q 2250 -91 1575 -91 
Q 1294 -91 989 -36 
Q 684 19 347 128 
L 347 722 
Q 666 556 975 473 
Q 1284 391 1588 391 
Q 1994 391 2212 530 
Q 2431 669 2431 922 
Q 2431 1156 2273 1281 
Q 2116 1406 1581 1522 
L 1381 1569 
Q 847 1681 609 1914 
Q 372 2147 372 2553 
Q 372 3047 722 3315 
Q 1072 3584 1716 3584 
Q 2034 3584 2315 3537 
Q 2597 3491 2834 3397 
z
" transform="scale(0.015625)"/>
      <path id="DejaVuSans-6b" d="M 581 4863 
L 1159 4863 
L 1159 1991 
L 2875 3500 
L 3609 3500 
L 1753 1863 
L 3688 0 
L 2938 0 
L 1159 1709 
L 1159 0 
L 581 0 
L 581 4863 
z
" transform="scale(0.015625)"/>
      <path id="DejaVuSans-28" d="M 1984 4856 
Q 1566 4138 1362 3434 
Q 1159 2731 1159 2009 
Q 1159 1288 1364 580 
Q 1569 -128 1984 -844 
L 1484 -844 
Q 1016 -109 783 600 
Q 550 1309 550 2009 
Q 550 2706 781 3412 
Q 1013 4119 1484 4856 
L 1984 4856 
z
" transform="scale(0.015625)"/>
      <path id="DejaVuSans-25" d="M 4653 2053 
Q 4381 2053 4226 1822 
Q 4072 1591 4072 1178 
Q 4072 772 4226 539 
Q 4381 306 4653 306 
Q 4919 306 5073 539 
Q 5228 772 5228 1178 
Q 5228 1588 5073 1820 
Q 4919 2053 4653 2053 
z
M 4653 2450 
Q 5147 2450 5437 2106 
Q 5728 1763 5728 1178 
Q 5728 594 5436 251 
Q 5144 -91 4653 -91 
Q 4153 -91 3862 251 
Q 3572 594 3572 1178 
Q 3572 1766 3864 2108 
Q 4156 2450 4653 2450 
z
M 1428 4353 
Q 1159 4353 1004 4120 
Q 850 3888 850 3481 
Q 850 3069 1003 2837 
Q 1156 2606 1428 2606 
Q 1700 2606 1854 2837 
Q 2009 3069 2009 3481 
Q 2009 3884 1853 4118 
Q 1697 4353 1428 4353 
z
M 4250 4750 
L 4750 4750 
L 1831 -91 
L 1331 -91 
L 4250 4750 
z
M 1428 4750 
Q 1922 4750 2215 4408 
Q 2509 4066 2509 3481 
Q 2509 2891 2217 2550 
Q 1925 2209 1428 2209 
Q 931 2209 642 2551 
Q 353 2894 353 3481 
Q 353 4063 643 4406 
Q 934 4750 1428 4750 
z
" transform="scale(0.015625)"/>
      <path id="DejaVuSans-29" d="M 513 4856 
L 1013 4856 
Q 1481 4119 1714 3412 
Q 1947 2706 1947 2009 
Q 1947 1309 1714 600 
Q 1481 -109 1013 -844 
L 513 -844 
Q 928 -128 1133 580 
Q 1338 1288 1338 2009 
Q 1338 2731 1133 3434 
Q 928 4138 513 4856 
z
" transform="scale(0.015625)"/>
     </defs>
     <use xlink:href="#DejaVuSans-4c"/>
     <use xlink:href="#DejaVuSans-61" transform="translate(55.712891 0)"/>
     <use xlink:href="#DejaVuSans-74" transform="translate(116.992188 0)"/>
     <use xlink:href="#DejaVuSans-65" transform="translate(156.201172 0)"/>
     <use xlink:href="#DejaVuSans-6e" transform="translate(217.724609 0)"/>
     <use xlink:href="#DejaVuSans-63" transform="translate(281.103516 0)"/>
     <use xlink:href="#DejaVuSans-79" transform="translate(336.083984 0)"/>
     <use xlink:href="#DejaVuSans-20" transform="translate(395.263672 0)"/>
     <use xlink:href="#DejaVuSans-66" transform="translate(427.050781 0)"/>
     <use xlink:href="#DejaVuSans-6f" transform="translate(462.255859 0)"/>
     <use xlink:href="#DejaVuSans-72" transform="translate(523.4375 0)"/>
     <use xlink:href="#DejaVuSans-20" transform="translate(564.550781 0)"/>
     <use xlink:href="#DejaVuSans-63" transform="translate(596.337891 0)"/>
     <use xlink:href="#DejaVuSans-68" transform="translate(651.318359 0)"/>
     <use xlink:href="#DejaVuSans-61" transform="translate(714.697266 0)"/>
     <use xlink:href="#DejaVuSans-74" transform="translate(775.976562 0)"/>
     <use xlink:href="#DejaVuSans-20" transform="translate(815.185547 0)"/>
     <use xlink:href="#DejaVuSans-73" transform="translate(846.972656 0)"/>
     <use xlink:href="#DejaVuSans-6f" transform="translate(899.072266 0)"/>
     <use xlink:href="#DejaVuSans-63" transform="translate(960.253906 0)"/>
     <use xlink:href="#DejaVuSans-6b" transform="translate(1015.234375 0)"/>
     <use xlink:href="#DejaVuSans-65" transform="translate(1069.519531 0)"/>
     <use xlink:href="#DejaVuSans-74" transform="translate(1131.042969 0)"/>
     <use xlink:href="#DejaVuSans-20" transform="translate(1170.251953 0)"/>
     <use xlink:href="#DejaVuSans-73" transform="translate(1202.039062 0)"/>
     <use xlink:href="#DejaVuSans-65" transform="translate(1254.138672 0)"/>
     <use xlink:href="#DejaVuSans-6e" transform="translate(1315.662109 0)"/>
     <use xlink:href="#DejaVuSans-64" transform="translate(1379.041016 0)"/>
     <use xlink:href="#DejaVuSans-20" transform="translate(1442.517578 0)"/>
     <use xlink:href="#DejaVuSans-63" transform="translate(1474.304688 0)"/>
     <use xlink:href="#DejaVuSans-61" transform="translate(1529.285156 0)"/>
     <use xlink:href="#DejaVuSans-6c" transform="translate(1590.564453 0)"/>
     <use xlink:href="#DejaVuSans-6c" transform="translate(1618.347656 0)"/>
     <use xlink:href="#DejaVuSans-73" transform="translate(1646.130859 0)"/>
     <use xlink:href="#DejaVuSans-20" transform="translate(1698.230469 0)"/>
     <use xlink:href="#DejaVuSans-28" transform="translate(1730.017578 0)"/>
     <use xlink:href="#DejaVuSans-63" transform="translate(1769.03125 0)"/>
     <use xlink:href="#DejaVuSans-65" transform="translate(1824.011719 0)"/>
     <use xlink:href="#DejaVuSans-6e" transform="translate(1885.535156 0)"/>
     <use xlink:href="#DejaVuSans-74" transform="translate(1948.914062 0)"/>
     <use xlink:href="#DejaVuSans-72" transform="translate(1988.123047 0)"/>
     <use xlink:href="#DejaVuSans-61" transform="translate(2029.236328 0)"/>
     <use xlink:href="#DejaVuSans-6c" transform="translate(2090.515625 0)"/>
     <use xlink:href="#DejaVuSans-20" transform="translate(2118.298828 0)"/>
     <use xlink:href="#DejaVuSans-39" transform="translate(2150.085938 0)"/>
     <use xlink:href="#DejaVuSans-30" transform="translate(2213.708984 0)"/>
     <use xlink:href="#DejaVuSans-25" transform="translate(2277.332031 0)"/>
     <use xlink:href="#DejaVuSans-29" transform="translate(2372.351562 0)"/>
    </g>
   </g>
  </g>
 </g>
 <defs>
  <clipPath id="pb91bdbb409">
   <rect x="50.96" y="26.88" width="3538.24" height="651.16"/>
  </clipPath>
 </defs>
</svg>
